<svg xmlns="http://www.w3.org/2000/svg" height="1024" preserveAspectRatio="none" style="display: block;" version="1.1" viewBox="0 0 2048 2048" width="1024">
<defs>
	<linearGradient gradientUnits="userSpaceOnUse" id="Gradient1" x1="176.136" x2="761.515" y1="671.081" y2="1045.41">
		<stop class="stop0" offset="0" stop-color="rgb(242,225,206)" stop-opacity="1"></stop>
		<stop class="stop1" offset="1" stop-color="rgb(255,252,245)" stop-opacity="1"></stop>
	</linearGradient>
	<linearGradient gradientUnits="userSpaceOnUse" id="Gradient2" x1="378.184" x2="480.654" y1="858.729" y2="928.129">
		<stop class="stop0" offset="0" stop-color="rgb(150,60,1)" stop-opacity="1"></stop>
		<stop class="stop1" offset="1" stop-color="rgb(176,95,24)" stop-opacity="1"></stop>
	</linearGradient>
	<linearGradient gradientUnits="userSpaceOnUse" id="Gradient3" x1="970.267" x2="967.817" y1="506.995" y2="857.034">
		<stop class="stop0" offset="0" stop-color="rgb(255,150,1)" stop-opacity="1"></stop>
		<stop class="stop1" offset="1" stop-color="rgb(255,197,2)" stop-opacity="1"></stop>
	</linearGradient>
</defs>
<path d="M 0 0 L 2048 0 L 2048 2048 L 0 2048 L 0 0 z" fill="rgb(155,145,184)" transform="translate(0,0)"></path>
<path d="M 732.686 98.4238 C 827.546 87.2391 935.378 307.966 1047.19 278.524 C 1089.17 267.47 1117.54 240.034 1148.92 212.402 C 1168.07 195.605 1186.98 178.519 1205.61 161.149 C 1277.97 94.7577 1310.69 82.0959 1405.95 126.012 C 1482.9 161.49 1551.1 214.703 1616.38 267.949 C 1638.3 285.825 1658.88 301.373 1670.3 328.145 C 1692.44 371.469 1715.31 415.015 1734.95 459.448 C 1799.14 602.473 1840.91 754.534 1858.78 910.279 C 1886.74 1167.9 1829.93 1439.05 1661.89 1641.83 C 1589.58 1729.1 1503.01 1801.89 1402.32 1854.46 C 1375.12 1867.36 1346.62 1881.32 1318.88 1892.59 C 1249.12 1920.62 1175.72 1938.54 1100.89 1945.78 C 885.15 1965.61 670.516 1897.72 505.419 1757.43 C 462.808 1721.87 417.263 1675.63 382.173 1632.48 C 361.638 1606.79 342.631 1579.91 325.251 1551.99 C 246.15 1426.7 198.564 1284.12 186.56 1136.44 C 162.271 863.955 247.138 576.75 374.923 336.85 C 380.961 325.514 388.705 309.568 397.01 300.107 C 409.877 285.45 426.188 271.254 441.073 258.581 C 460.481 241.797 480.574 225.823 501.301 210.699 C 554.355 172.591 667.336 103.799 732.686 98.4238 z" fill="rgb(0,0,0)" transform="translate(0,0)"></path>
<path d="M 1077.72 323.984 C 1196.48 316.157 1315.59 332.603 1427.79 372.321 C 1445.29 378.711 1468.91 387.799 1485.56 396.351 L 1481.92 405.027 L 1480.58 406.955 C 1471.05 426.566 1403.61 546.065 1402.4 560.164 L 1402.91 561.057 C 1464.32 575.663 1522.25 602.246 1573.36 639.282 C 1579.72 643.881 1595.4 655.268 1599.22 661.024 L 1599.52 663.562 C 1597.6 665.059 1598.62 664.765 1596.59 664.8 C 1557.67 682.773 1525.31 708.542 1493.93 737.221 C 1487.01 743.546 1475.2 753.246 1470.2 760.623 C 1462.85 772.468 1439.52 776.638 1438.69 794.438 C 1438.14 789.665 1437.83 783.822 1437.46 778.949 C 1436.3 758.798 1430.14 715.678 1420.18 697.359 L 1419.38 696.896 C 1423.05 715.049 1428.42 730.128 1431.69 749.557 C 1434.01 763.332 1433.84 783.5 1435.87 794.525 C 1434.79 810.449 1437.19 829.396 1434.27 846.531 C 1433.13 853.277 1430.63 864.633 1430.23 871.018 C 1430.25 870.764 1430.85 872.853 1430.59 875.581 C 1426.79 877.587 1398.47 869.722 1389.87 868.746 C 1357.42 865.061 1341.04 881.14 1310.84 884.983 C 1284.77 888.3 1259.42 862.6 1239.93 846.241 C 1261.52 817.382 1272.34 791.931 1282.27 757.807 C 1278.52 762.822 1272.15 783.171 1269.06 790.649 C 1264.18 802.182 1258.38 813.3 1251.7 823.892 C 1212.55 885.149 1147.05 926.664 1076.42 941.58 C 1007.75 955.9 936.206 942.184 877.703 903.483 C 816.431 863.238 777.102 811.124 761.628 738.629 C 746.521 667.85 763.513 596.348 803.056 536.281 L 801.52 533.204 C 759.944 591.756 742.193 662.669 755.03 733.563 C 781.823 881.519 924.509 975.792 1070.98 949.009 C 1117.86 940.437 1162.92 921.32 1199.91 890.436 C 1212.12 880.198 1222.12 867.809 1232.98 856.486 C 1253.52 872.972 1284.35 901.711 1310.44 897.413 C 1348.52 891.139 1358.21 874.364 1400.35 880.662 C 1410.03 883.328 1420.98 886.084 1430.39 889.312 C 1411.04 980.123 1378.9 1052.09 1297.31 1103.06 C 1234.89 1142.05 1151.48 1163.87 1080.14 1178.24 C 1031.36 1188.06 978.849 1194.41 929.491 1199.7 C 829.287 1211.04 728.459 1215.94 627.628 1214.36 C 564.848 1213.58 498.23 1210.41 436.441 1198.12 C 432.566 1197.35 422.204 1194.85 418.824 1193.45 L 417.293 1193.09 C 370.915 1181.81 343.093 1155.38 319.218 1115.83 C 331.105 1120.03 343.058 1124.05 355.071 1127.87 C 497.803 1161.55 635.88 1154.13 772.78 1100.32 C 799.924 1089.65 834.053 1077.68 858.617 1062.06 C 846.675 1065.91 834.102 1071.77 822.027 1075.3 C 755.889 1094.67 689.474 1112.65 621.181 1122.08 C 520.071 1136.17 417.093 1127.63 319.689 1097.07 C 305.951 1092.89 275.643 1083.81 264.913 1075.68 C 232.176 1059.65 257.977 1000.53 258.058 973.016 L 258.055 971.529 C 255.971 936.972 259.415 902.304 268.258 868.833 C 288.505 794.732 345.593 709.408 395.075 651.77 C 518.104 507.322 682.66 404.3 866.34 356.73 C 904.492 346.462 958.908 333.803 997.984 330.828 C 1003.72 327.967 1068.16 324.102 1077.72 323.984 z" fill="rgb(223,148,38)" transform="translate(0,0)"></path>
<path d="M 977.365 401.605 C 985.196 399.168 1002.44 399.25 1010.91 399.474 C 1062.23 400.415 1112.64 413.182 1158.22 436.782 C 1187.25 452.134 1213.1 472.857 1234.41 497.853 C 1237.75 501.829 1241.07 505.832 1244.35 509.861 L 1243.03 511.426 C 1269.56 549.839 1291.95 624.872 1294.04 671.901 C 1293.55 689.611 1290.89 745.339 1282.27 757.807 C 1278.52 762.822 1272.15 783.171 1269.06 790.649 C 1264.18 802.182 1258.38 813.3 1251.7 823.892 C 1212.55 885.149 1147.05 926.664 1076.42 941.58 C 1007.75 955.9 936.206 942.184 877.703 903.483 C 816.431 863.238 777.102 811.124 761.628 738.629 C 746.521 667.85 763.513 596.348 803.056 536.281 L 801.52 533.204 C 814.443 515.595 829.442 500.128 845.397 485.299 C 853.517 475.768 866.843 469.196 875.832 461.853 C 908.333 435.305 935.113 414.755 977.06 404.13 C 978.678 403.72 977.662 404.306 979.267 402.704 L 977.365 401.605 z" fill="rgb(93,81,24)" transform="translate(0,0)"></path>
<path d="M 845.397 485.299 C 844.257 489.85 808.851 528.462 803.056 536.281 L 801.52 533.204 C 814.443 515.595 829.442 500.128 845.397 485.299 z" fill="rgb(0,0,0)" transform="translate(0,0)"></path>
<path d="M 1243.03 511.426 C 1238.99 507.239 1234.89 503.629 1234.41 497.853 C 1237.75 501.829 1241.07 505.832 1244.35 509.861 L 1243.03 511.426 z" fill="rgb(126,135,39)" transform="translate(0,0)"></path>
<path d="M 1002.49 432.583 C 1136.3 421.204 1254.06 520.324 1265.69 654.12 C 1277.31 787.915 1178.4 905.855 1044.63 917.719 C 910.508 929.613 792.199 830.397 780.548 696.258 C 768.897 562.12 868.327 443.991 1002.49 432.583 z" fill="rgb(0,0,0)" transform="translate(0,0)"></path>
<path d="M 951.161 509.644 C 1046.8 499.646 1132.49 568.939 1142.72 664.553 C 1152.96 760.167 1083.88 846.028 988.291 856.501 C 892.367 867.011 806.138 797.634 795.866 701.684 C 785.595 605.734 855.185 519.677 951.161 509.644 z" fill="url(#Gradient3)" transform="translate(0,0)"></path>
<path d="M 863.479 656.505 C 840.112 629.55 841.79 589.058 867.307 564.129 C 892.824 539.201 933.345 538.467 959.747 562.456 C 998.896 567.766 1024.56 575.618 1049.94 608.925 C 1069.4 634.117 1078.01 666.028 1073.87 697.591 C 1071.44 715.519 1063.5 739.377 1050.31 752.361 C 1053.44 761.436 1050.63 771.505 1043.25 777.643 C 1035.86 783.78 1025.45 784.703 1017.1 779.958 C 932.433 824.742 839.027 749.597 863.479 656.505 z" fill="rgb(0,0,0)" transform="translate(0,0)"></path>
<path d="M 863.479 656.505 C 840.112 629.55 841.79 589.058 867.307 564.129 C 892.824 539.201 933.345 538.467 959.747 562.456 C 978.281 579.296 985.953 605.023 979.67 629.263 C 973.386 653.504 954.183 672.264 929.802 677.98 C 905.422 683.696 879.882 675.427 863.479 656.505 z" fill="rgb(249,248,245)" transform="translate(0,0)"></path>
<path d="M 1017.1 779.958 C 1008.18 774.89 1003.68 764.541 1006.06 754.561 C 1008.43 744.581 1017.11 737.367 1027.36 736.858 C 1037.6 736.348 1046.95 742.666 1050.31 752.361 C 1053.44 761.436 1050.63 771.505 1043.25 777.643 C 1035.86 783.78 1025.45 784.703 1017.1 779.958 z" fill="rgb(249,248,245)" transform="translate(0,0)"></path>
<path d="M 886.566 508.407 C 925.76 471.433 986.742 452.029 1039.55 454.922 C 1238.35 465.813 1326.5 714.853 1178.54 848.935 C 1134.03 889.275 1084.37 910.17 1024.4 907.742 C 962.335 905.246 903.398 879.839 858.973 836.427 L 860.207 833.131 C 876.584 844.282 892.534 854.943 911.517 861.312 C 1046.57 906.625 1180.58 794.221 1152.91 651.552 C 1142.82 599.074 1112.14 552.817 1067.73 523.1 C 1026.71 495.262 976.199 485.151 927.629 495.058 C 912.712 498.119 900.497 502.577 886.566 508.407 z" fill="rgb(238,231,4)" transform="translate(0,0)"></path>
<path d="M 848.626 824.846 C 852.945 827.666 856.302 829.703 860.207 833.131 L 858.973 836.427 C 855.362 832.95 851.911 828.682 848.626 824.846 z" fill="rgb(248,185,87)" transform="translate(0,0)"></path>
<path d="M 1077.72 323.984 C 1196.48 316.157 1315.59 332.603 1427.79 372.321 C 1445.29 378.711 1468.91 387.799 1485.56 396.351 L 1481.92 405.027 L 1480.58 406.955 C 1471.05 426.566 1403.61 546.065 1402.4 560.164 L 1402.91 561.057 C 1464.32 575.663 1522.25 602.246 1573.36 639.282 C 1579.72 643.881 1595.4 655.268 1599.22 661.024 L 1599.52 663.562 C 1597.6 665.059 1598.62 664.765 1596.59 664.8 C 1557.67 682.773 1525.31 708.542 1493.93 737.221 C 1487.01 743.546 1475.2 753.246 1470.2 760.623 C 1462.85 772.468 1439.52 776.638 1438.69 794.438 C 1438.14 789.665 1437.83 783.822 1437.46 778.949 C 1436.3 758.798 1430.14 715.678 1420.18 697.359 L 1419.38 696.896 C 1423.05 715.049 1428.42 730.128 1431.69 749.557 C 1434.01 763.332 1433.84 783.5 1435.87 794.525 C 1434.79 810.449 1437.19 829.396 1434.27 846.531 C 1433.13 853.277 1430.63 864.633 1430.23 871.018 C 1430.25 870.764 1430.85 872.853 1430.59 875.581 C 1426.79 877.587 1398.47 869.722 1389.87 868.746 C 1357.42 865.061 1341.04 881.14 1310.84 884.983 C 1284.77 888.3 1259.42 862.6 1239.93 846.241 C 1261.52 817.382 1272.34 791.931 1282.27 757.807 C 1290.89 745.339 1293.55 689.611 1294.04 671.901 C 1297.47 687.863 1300.15 701.196 1302.23 717.486 C 1305.4 707.662 1302.45 692.917 1307.32 675.538 C 1307.16 673.932 1307.22 670.687 1307.2 668.937 C 1309.7 664.768 1309.04 659.964 1309.09 654.81 C 1308.21 637.991 1305.7 621.297 1301.59 604.964 C 1262.79 452.808 1098.38 358.973 946.852 393.475 C 941.535 394.686 936.228 396.071 930.946 397.431 C 928.715 395.831 922.832 394.353 920.003 393.516 C 907.742 389.972 895.252 387.271 882.621 385.434 C 875.558 384.349 849.391 380.875 844.067 378.629 C 894.675 363.039 945.953 349.685 996.263 333.119 C 996.837 332.356 997.411 331.592 997.984 330.828 C 1003.72 327.967 1068.16 324.102 1077.72 323.984 z" fill="rgb(126,135,39)" transform="translate(0,0)"></path>
<path d="M 1334.81 507.905 C 1364.07 466.857 1434.42 427.33 1480.58 406.955 C 1471.05 426.566 1403.61 546.065 1402.4 560.164 L 1402.91 561.057 C 1400.61 568.094 1392.06 577.082 1387.12 582.709 C 1383.05 573.743 1364.48 549.305 1357.61 540.08 C 1357.76 534.269 1339.72 513.934 1334.81 507.905 z" fill="rgb(93,81,24)" transform="translate(0,0)"></path>
<path d="M 1583.48 661.04 L 1596.59 664.8 C 1557.67 682.773 1525.31 708.542 1493.93 737.221 C 1487.01 743.546 1475.2 753.246 1470.2 760.623 C 1462.85 772.468 1439.52 776.638 1438.69 794.438 C 1438.14 789.665 1437.83 783.822 1437.46 778.949 C 1436.3 758.798 1430.14 715.678 1420.18 697.359 C 1428.38 693.02 1435.9 686.978 1444.7 682.544 C 1482.09 663.704 1524.63 660.493 1565.85 661.494 C 1571.79 661.638 1577.57 661.835 1583.48 661.04 z" fill="rgb(93,81,24)" transform="translate(0,0)"></path>
<path d="M 1077.72 323.984 C 1196.48 316.157 1315.59 332.603 1427.79 372.321 C 1445.29 378.711 1468.91 387.799 1485.56 396.351 L 1481.92 405.027 C 1472.1 400.343 1448.52 394.244 1437.29 391.105 C 1405.13 381.846 1372.55 374.101 1339.66 367.895 C 1296.88 360.204 1252.43 355.94 1209.27 350.73 C 1160.64 344.859 1114.98 339.339 1065.79 340.038 C 1040.3 340.401 1029.41 343.78 1005.77 347.162 C 1022.71 339.152 1042.04 334.803 1060.07 329.862 C 1066.18 328.187 1072.21 327.218 1077.72 323.984 z" fill="rgb(196,196,91)" transform="translate(0,0)"></path>
<path d="M 1402.91 561.057 C 1464.32 575.663 1522.25 602.246 1573.36 639.282 C 1579.72 643.881 1595.4 655.268 1599.22 661.024 L 1599.52 663.562 C 1597.6 665.059 1598.62 664.765 1596.59 664.8 L 1583.48 661.04 C 1528.99 625.456 1468.87 606.496 1406.43 590.958 C 1401.11 589.635 1390.06 587.364 1387.12 582.709 C 1392.06 577.082 1400.61 568.094 1402.91 561.057 z" fill="rgb(196,196,91)" transform="translate(0,0)"></path>
<path d="M 1307.14 487.996 C 1249.3 442.619 1172.88 400.065 1102.82 375.42 C 1100.04 374.442 1098.45 374.17 1095.52 372.874 C 1103.26 370.896 1135.06 382.471 1145.85 382.905 C 1159.41 387.417 1175.2 392.602 1187.99 398.68 C 1230.57 418.914 1277.35 453.244 1310.3 486.663 L 1307.14 487.996 z" fill="rgb(196,196,91)" transform="translate(0,0)"></path>
<path d="M 1145.85 382.905 C 1152.18 382.342 1161.9 386.132 1168.13 388.147 C 1208.45 401.199 1248.15 427.206 1280.78 454.136 C 1298.13 468.449 1319.81 491.083 1334.81 507.905 C 1339.72 513.934 1357.76 534.269 1357.61 540.08 C 1349.51 529.607 1331.22 507.12 1321.6 498.587 C 1318.57 494.959 1313.71 490.188 1310.3 486.663 C 1277.35 453.244 1230.57 418.914 1187.99 398.68 C 1175.2 392.602 1159.41 387.417 1145.85 382.905 z" fill="rgb(0,0,0)" transform="translate(0,0)"></path>
<path d="M 1307.32 675.538 C 1307.72 680.412 1308.14 684.897 1308.21 689.804 C 1307.87 703.814 1309.93 728.396 1305.8 740.164 L 1304.77 740.536 C 1302.59 735.557 1301.45 722.677 1302.23 717.486 C 1305.4 707.662 1302.45 692.917 1307.32 675.538 z" fill="rgb(159,159,89)" transform="translate(0,0)"></path>
<path d="M 1309.09 654.81 C 1310.14 660.426 1311 685.702 1308.8 689.677 L 1308.21 689.804 C 1308.14 684.897 1307.72 680.412 1307.32 675.538 C 1307.16 673.932 1307.22 670.687 1307.2 668.937 C 1309.7 664.768 1309.04 659.964 1309.09 654.81 z" fill="rgb(46,54,17)" transform="translate(0,0)"></path>
<path d="M 1310.3 486.663 C 1313.71 490.188 1318.57 494.959 1321.6 498.587 C 1316.74 498.005 1311.05 491.596 1307.14 487.996 L 1310.3 486.663 z" fill="rgb(159,159,89)" transform="translate(0,0)"></path>
<path d="M 1400.35 880.662 C 1410.03 883.328 1420.98 886.084 1430.39 889.312 C 1411.04 980.123 1378.9 1052.09 1297.31 1103.06 C 1234.89 1142.05 1151.48 1163.87 1080.14 1178.24 C 1031.36 1188.06 978.849 1194.41 929.491 1199.7 C 829.287 1211.04 728.459 1215.94 627.628 1214.36 C 564.848 1213.58 498.23 1210.41 436.441 1198.12 C 432.566 1197.35 422.204 1194.85 418.824 1193.45 L 417.293 1193.09 C 370.915 1181.81 343.093 1155.38 319.218 1115.83 C 331.105 1120.03 343.058 1124.05 355.071 1127.87 C 497.803 1161.55 635.88 1154.13 772.78 1100.32 C 799.924 1089.65 834.053 1077.68 858.617 1062.06 C 846.675 1065.91 834.102 1071.77 822.027 1075.3 C 755.889 1094.67 689.474 1112.65 621.181 1122.08 C 520.071 1136.17 417.093 1127.63 319.689 1097.07 C 305.951 1092.89 275.643 1083.81 264.913 1075.68 C 268.556 1075.91 280.378 1078.69 284.649 1079.56 L 325.684 1087.88 C 364.75 1095.84 404.182 1101.88 443.839 1105.99 C 490.91 1110.66 538.334 1110.51 585.376 1105.57 C 651.189 1099.05 722.66 1082 786.356 1064.95 C 833.931 1052.23 896.011 1035.03 938.901 1010.69 C 926.141 1022.51 913.656 1035.44 899.911 1045.98 C 861.716 1075.27 819.464 1095.97 778.137 1119.66 C 859.595 1127.42 972.633 1117.45 1052.14 1100.27 C 1176.12 1073.48 1289.25 1031.53 1368.82 927.623 C 1380.52 912.358 1390.03 897.031 1400.35 880.662 z" fill="rgb(154,77,23)" transform="translate(0,0)"></path>
<path d="M 319.218 1115.83 C 331.105 1120.03 343.058 1124.05 355.071 1127.87 C 361.66 1149.91 418.363 1190.24 419.128 1192.9 L 418.824 1193.45 L 417.293 1193.09 C 370.915 1181.81 343.093 1155.38 319.218 1115.83 z" fill="rgb(248,185,87)" transform="translate(0,0)"></path>
<path d="M 258.055 971.529 C 255.971 936.972 259.415 902.304 268.258 868.833 C 288.505 794.732 345.593 709.408 395.075 651.77 C 518.104 507.322 682.66 404.3 866.34 356.73 C 904.492 346.462 958.908 333.803 997.984 330.828 C 997.411 331.592 996.837 332.356 996.263 333.119 C 945.953 349.685 894.675 363.039 844.067 378.629 C 810.219 387.141 766.352 409.461 734.975 424.516 C 695.707 443.356 656.885 466.367 620.664 490.565 C 610.612 497.28 598.755 503.409 589.151 510.145 C 485.217 583.458 397.566 677.471 331.703 786.278 C 309.937 822.637 290.539 866.663 280.541 907.955 C 277.378 921.295 274.977 934.805 273.35 948.418 C 272.374 956.418 272.26 975.004 265.705 980.293 C 260.405 980.167 260.03 976.174 258.055 971.529 z" fill="rgb(248,185,87)" transform="translate(0,0)"></path>
<path d="M 930.946 397.431 C 936.228 396.071 941.535 394.686 946.852 393.475 C 1098.38 358.973 1262.79 452.808 1301.59 604.964 C 1305.7 621.297 1308.21 637.991 1309.09 654.81 C 1309.04 659.964 1309.7 664.768 1307.2 668.937 C 1307.22 670.687 1307.16 673.932 1307.32 675.538 C 1302.45 692.917 1305.4 707.662 1302.23 717.486 C 1300.15 701.196 1297.47 687.863 1294.04 671.901 C 1291.95 624.872 1269.56 549.839 1243.03 511.426 L 1244.35 509.861 C 1241.07 505.832 1237.75 501.829 1234.41 497.853 C 1213.1 472.857 1187.25 452.134 1158.22 436.782 C 1112.64 413.182 1062.23 400.415 1010.91 399.474 C 1002.44 399.25 985.196 399.168 977.365 401.605 C 944.703 407.021 905.208 419.16 876.855 437.2 C 819.437 473.733 771.196 533.613 744.334 595.854 C 731.357 625.921 722.992 658.734 715.263 689.892 C 713.67 657.847 741.294 581.847 756.591 552.369 C 783.484 500.544 824.15 451.965 874.563 421.614 C 890.469 412.038 913.072 403.143 930.946 397.431 z" fill="rgb(0,0,0)" transform="translate(0,0)"></path>
<path d="M 1244.35 509.861 C 1283 557.327 1303.66 607.641 1307.2 668.937 C 1307.22 670.687 1307.16 673.932 1307.32 675.538 C 1302.45 692.917 1305.4 707.662 1302.23 717.486 C 1300.15 701.196 1297.47 687.863 1294.04 671.901 C 1291.95 624.872 1269.56 549.839 1243.03 511.426 L 1244.35 509.861 z" fill="rgb(196,196,91)" transform="translate(0,0)"></path>
<path d="M 371.587 950.907 C 340.883 930.689 360.443 884.123 376.022 860.331 C 390.508 838.207 412.354 820.878 438.478 815.024 C 454.032 811.608 466.752 817.692 470.598 833.515 C 509.387 866.187 501.258 907.943 471.463 944.682 C 454.078 966.118 414.919 991.723 392.626 961.934 C 382.268 959.437 380.068 957.718 371.587 950.907 z" fill="rgb(238,231,4)" transform="translate(0,0)"></path>
<path d="M 371.587 950.907 C 340.883 930.689 360.443 884.123 376.022 860.331 C 390.508 838.207 412.354 820.878 438.478 815.024 C 454.032 811.608 466.752 817.692 470.598 833.515 C 509.387 866.187 501.258 907.943 471.463 944.682 C 454.078 966.118 414.919 991.723 392.626 961.934 C 442.282 962.379 481.265 882.898 467.567 844.149 C 448.892 791.325 377.653 874.124 371.425 898.1 C 365.68 920.214 362.987 931.182 371.587 950.907 z" fill="url(#Gradient2)" transform="translate(0,0)"></path>
<path d="M 439.559 843.184 C 448.533 842.719 456.778 845.792 459.443 855.291 C 464.504 873.323 457.039 894.727 448.9 910.691 C 437.67 932.719 426.621 945.926 402.744 953.642 C 355.1 955.985 389.812 858.713 439.559 843.184 z" fill="rgb(0,0,0)" transform="translate(0,0)"></path>
<path d="M 194.897 1020.65 C 204.911 1039.56 214.993 1062.82 224.744 1082.54 C 241.685 1116.3 259.299 1149.71 277.577 1182.76 C 286.89 1199.4 296.78 1215.71 307.23 1231.67 C 312.277 1239.53 323.492 1256.05 326.708 1263.58 L 309.239 1265.41 C 299.632 1266.45 251.242 1270.19 245.805 1272.64 L 246.283 1272.98 C 307.328 1275.85 356.064 1271.31 415.78 1269.24 C 432.571 1327.66 450.105 1393.16 469.528 1450.46 C 471.692 1456.85 473.933 1463.96 476.452 1470.16 C 469.106 1431.75 462.545 1395.82 453.159 1357.72 C 510.212 1349.73 547.163 1316.4 592.034 1283.43 C 607.431 1272.11 623.701 1258.71 642.299 1252.68 C 696.267 1237.61 728.936 1329.04 745.916 1365.53 C 758.697 1392.69 772.027 1419.59 785.896 1446.21 C 796.761 1466.6 806.568 1484.27 818.408 1504.07 C 831.131 1525.35 851.354 1555.18 861.544 1576.98 C 845.249 1584.96 828.749 1590.72 811.811 1597.2 L 758.515 1618.01 C 752.948 1620.15 724.709 1630.03 721.779 1632.63 L 722.193 1633.17 C 770.527 1616.94 819.787 1604.56 866.912 1584.14 C 878.316 1591.52 893.755 1604.32 904.905 1612.87 C 921.994 1625.79 939.247 1638.49 956.659 1650.97 C 964.57 1656.87 973.091 1663.55 981.428 1668.68 C 977.52 1663.73 963.914 1652.91 958.51 1648.39 C 933.975 1627.18 901.874 1600.19 876.438 1579.99 C 870.378 1573 866.114 1564.42 862.124 1556.11 C 852.437 1535.94 841.679 1516.29 831.96 1496.15 C 868.12 1485.01 896.038 1471.72 928.225 1451.05 C 953.426 1435.54 976.566 1416.34 1000.97 1399.84 C 1054.93 1363.36 1117.84 1284.74 1187.97 1332.62 C 1200.44 1339.82 1243.14 1381.19 1255.76 1392.61 C 1313.55 1444.91 1382.16 1500.94 1455.77 1528.42 C 1460.65 1527.86 1461.07 1526.09 1463.63 1522.17 C 1426.91 1507.77 1374.21 1475.86 1343.69 1451.35 C 1347.38 1446.06 1350.98 1440.72 1355 1435.68 C 1385.01 1388.7 1406.77 1343.51 1430.12 1293.04 C 1447.51 1255.43 1483.39 1165.73 1538.07 1192.53 C 1557.7 1202.21 1593.76 1232.51 1614.51 1247 C 1625.9 1255.05 1637.48 1262.82 1649.24 1270.31 C 1654.07 1273.37 1667.03 1280.97 1670.64 1283.86 C 1682.92 1292.01 1752.94 1329.38 1763.43 1329.03 C 1749.06 1320.26 1702.66 1298.86 1691.56 1287.78 C 1688.41 1285.85 1684.93 1283.25 1681.87 1281.09 C 1745.59 1220.59 1773.16 1188.85 1816.71 1112.88 L 1823.59 1100.29 C 1831.77 1085.64 1845.78 1058.11 1852.06 1042.52 C 1849 1125.09 1843 1197.98 1824.72 1278.8 C 1737.32 1665.26 1385.85 1955.9 984.504 1935.05 C 838.398 1927.46 695.706 1878.06 574.855 1793.84 C 519.817 1755.1 469.245 1710.36 424.065 1660.47 C 415.06 1650.69 389.5 1621.44 383.245 1611.02 C 376.543 1603.43 367.722 1590.78 361.777 1582.44 C 341.423 1554.19 323.03 1524.58 306.728 1493.81 C 296.721 1475.05 286.918 1456.61 277.877 1437.34 C 219.9 1313.78 196.89 1177.47 194.839 1041.79 L 194.897 1020.65 z" fill="rgb(209,182,156)" transform="translate(0,0)"></path>
<path d="M 1852.06 1042.52 C 1849 1125.09 1843 1197.98 1824.72 1278.8 C 1737.32 1665.26 1385.85 1955.9 984.504 1935.05 C 838.398 1927.46 695.706 1878.06 574.855 1793.84 C 519.817 1755.1 469.245 1710.36 424.065 1660.47 C 415.06 1650.69 389.5 1621.44 383.245 1611.02 C 387.172 1612.44 391.852 1617.72 395.328 1620.58 C 691.215 1864.01 1135.02 1774.54 1419.39 1558.7 C 1425.28 1554.23 1453.76 1532.41 1455.77 1528.42 C 1460.65 1527.86 1461.07 1526.09 1463.63 1522.17 C 1426.91 1507.77 1374.21 1475.86 1343.69 1451.35 C 1347.38 1446.06 1350.98 1440.72 1355 1435.68 C 1385.01 1388.7 1406.77 1343.51 1430.12 1293.04 C 1447.51 1255.43 1483.39 1165.73 1538.07 1192.53 C 1557.7 1202.21 1593.76 1232.51 1614.51 1247 C 1625.9 1255.05 1637.48 1262.82 1649.24 1270.31 C 1654.07 1273.37 1667.03 1280.97 1670.64 1283.86 C 1682.92 1292.01 1752.94 1329.38 1763.43 1329.03 C 1749.06 1320.26 1702.66 1298.86 1691.56 1287.78 C 1688.41 1285.85 1684.93 1283.25 1681.87 1281.09 C 1745.59 1220.59 1773.16 1188.85 1816.71 1112.88 L 1823.59 1100.29 C 1831.77 1085.64 1845.78 1058.11 1852.06 1042.52 z" fill="rgb(128,98,77)" transform="translate(0,0)"></path>
<path d="M 1355 1435.68 C 1385.01 1388.7 1406.77 1343.51 1430.12 1293.04 C 1447.51 1255.43 1483.39 1165.73 1538.07 1192.53 C 1557.7 1202.21 1593.76 1232.51 1614.51 1247 C 1625.9 1255.05 1637.48 1262.82 1649.24 1270.31 C 1654.07 1273.37 1667.03 1280.97 1670.64 1283.86 C 1641.34 1338.78 1565.63 1425.91 1521 1469.58 C 1508.94 1481.26 1496.64 1492.67 1484.08 1503.81 C 1481.3 1506.27 1465.32 1519.97 1463.63 1522.17 C 1426.91 1507.77 1374.21 1475.86 1343.69 1451.35 C 1347.38 1446.06 1350.98 1440.72 1355 1435.68 z" fill="rgb(209,182,156)" transform="translate(0,0)"></path>
<path d="M 1355 1435.68 C 1385.01 1388.7 1406.77 1343.51 1430.12 1293.04 C 1447.51 1255.43 1483.39 1165.73 1538.07 1192.53 C 1530.41 1198.2 1515.96 1193.2 1511.05 1198.83 C 1471.02 1244.64 1445.95 1302.03 1414.97 1353.64 C 1408.18 1364.95 1364.49 1432.77 1357.62 1436.38 L 1355 1435.68 z" fill="rgb(238,218,198)" transform="translate(0,0)"></path>
<path d="M 1816.71 1112.88 L 1817.19 1115.53 C 1793.63 1160.96 1771.02 1196.66 1737.77 1236.02 C 1723.11 1253.37 1705.56 1270.75 1691.56 1287.78 C 1688.41 1285.85 1684.93 1283.25 1681.87 1281.09 C 1745.59 1220.59 1773.16 1188.85 1816.71 1112.88 z" fill="rgb(238,218,198)" transform="translate(0,0)"></path>
<path d="M 1823.59 1100.29 C 1824.71 1104.56 1820.38 1112.49 1817.19 1115.53 L 1816.71 1112.88 L 1823.59 1100.29 z" fill="rgb(164,142,122)" transform="translate(0,0)"></path>
<path d="M 831.96 1496.15 C 868.12 1485.01 896.038 1471.72 928.225 1451.05 C 953.426 1435.54 976.566 1416.34 1000.97 1399.84 C 1054.93 1363.36 1117.84 1284.74 1187.97 1332.62 C 1186.57 1333.9 1185.98 1335 1183.79 1334.63 C 1175.2 1333.16 1166.23 1330.15 1157.58 1328.74 C 1121.96 1321.87 1101.73 1338.27 1076.28 1360.49 C 1050.2 1383.17 1027.36 1409.75 1003.96 1435.15 C 968.854 1473.25 934.204 1511.75 902.319 1552.63 C 895.127 1561.85 882.383 1571.57 876.438 1579.99 C 870.378 1573 866.114 1564.42 862.124 1556.11 C 852.437 1535.94 841.679 1516.29 831.96 1496.15 z" fill="rgb(238,218,198)" transform="translate(0,0)"></path>
<path d="M 722.193 1633.17 C 770.527 1616.94 819.787 1604.56 866.912 1584.14 C 878.316 1591.52 893.755 1604.32 904.905 1612.87 C 921.994 1625.79 939.247 1638.49 956.659 1650.97 C 964.57 1656.87 973.091 1663.55 981.428 1668.68 C 982.321 1670.2 987.153 1674.11 988.752 1675.46 C 982.895 1673.92 977.176 1671.99 971.438 1670.07 C 927.712 1655.46 883.402 1641.97 837.493 1636.27 C 808.699 1632.85 779.678 1631.73 750.706 1632.93 C 744.738 1633.14 725.718 1635.11 722.193 1633.17 z" fill="rgb(238,218,198)" transform="translate(0,0)"></path>
<path d="M 246.283 1272.98 C 307.328 1275.85 356.064 1271.31 415.78 1269.24 C 432.571 1327.66 450.105 1393.16 469.528 1450.46 L 465.901 1450.51 C 456.919 1438.37 415.791 1330.79 410.906 1313.3 C 378.615 1309.97 331.871 1297.14 300.095 1289.21 C 284.037 1285.21 261.964 1280.19 246.628 1275.55 L 246.283 1272.98 z" fill="rgb(238,218,198)" transform="translate(0,0)"></path>
<path d="M 194.897 1020.65 C 204.911 1039.56 214.993 1062.82 224.744 1082.54 C 241.685 1116.3 259.299 1149.71 277.577 1182.76 C 286.89 1199.4 296.78 1215.71 307.23 1231.67 C 312.277 1239.53 323.492 1256.05 326.708 1263.58 L 309.239 1265.41 C 301.5 1253.39 288.989 1242.27 280.394 1229.88 C 260.285 1200.9 245.679 1167.42 232.132 1134.98 C 220.198 1106.41 214.541 1075.51 201.726 1047.45 C 199.56 1042.7 198.864 1043.14 194.839 1041.79 L 194.897 1020.65 z" fill="rgb(238,218,198)" transform="translate(0,0)"></path>
<path d="M 754.296 113.1 C 788.94 112.152 902.514 234.095 939.196 261.038 C 1087.53 369.991 1175.27 167.418 1284.45 116.269 C 1344.67 123.891 1406.89 191.58 1445.09 235.39 C 1459.02 251.356 1470.32 269.108 1482.5 286.23 C 1536.73 362.427 1561.87 453.856 1581.99 543.922 C 1588.85 574.588 1592.44 605.122 1597.75 635.884 C 1588.05 626.714 1574.41 618.175 1563.23 610.716 C 1522.6 583.619 1479.25 562.111 1431.98 549.135 C 1454.08 504.382 1478.96 460.957 1500.66 416.638 C 1505.49 407.4 1510.28 396.296 1514.68 386.721 C 1495.76 376.51 1469.5 367.823 1449.16 359.954 C 1152.53 245.213 794.67 305.814 539.129 490.652 C 510.545 511.327 483.569 532.639 458.778 557.912 C 470.234 509.801 480.375 453.75 499.167 407.654 C 539.929 307.668 605.917 207.302 695.645 144.809 C 712.676 132.947 734.56 118.149 754.296 113.1 z" fill="rgb(30,56,68)" transform="translate(0,0)"></path>
<path d="M 1622.47 442.561 C 1625.37 441.603 1627.27 441.277 1629.47 439.161 C 1627.99 438.026 1626.11 437.163 1626.34 435.994 C 1632.94 401.467 1641.57 350.723 1649.62 318.41 C 1751.87 503.042 1823.29 699.424 1845.6 910.266 C 1847.85 931.492 1856.38 994.734 1850.57 1011.4 C 1817.16 1107.38 1747.02 1209.63 1674.8 1275.59 C 1636.04 1250.09 1598.68 1222.52 1562.88 1193.01 C 1588.21 1115.24 1603.96 1026.93 1614.75 946.1 C 1616.63 931.622 1618.1 917.092 1619.14 902.529 C 1619.58 896.303 1620.56 861.813 1621.92 858.074 C 1629.05 716.91 1611.34 575.592 1569.59 440.554 C 1586.08 441.784 1606.48 445.291 1622.47 442.561 z" fill="rgb(128,98,77)" transform="translate(0,0)"></path>
<path d="M 1569.59 440.554 C 1586.08 441.784 1606.48 445.291 1622.47 442.561 C 1626.77 454.729 1630.54 487.464 1632.14 500.901 C 1644.35 604.186 1643.76 708.582 1630.41 811.725 C 1629.47 818.987 1624.68 853.112 1621.92 858.074 C 1629.05 716.91 1611.34 575.592 1569.59 440.554 z" fill="rgb(238,218,198)" transform="translate(0,0)"></path>
<path d="M 341.242 1262.13 C 338.259 1256.51 334.402 1251.08 331.058 1245.59 C 282.852 1166.51 233.929 1085.79 196.876 1000.89 C 193.431 992.997 200.522 931.728 202.021 917.855 C 219.782 753.407 268.869 591.262 337.749 441.188 C 356.897 399.495 378.077 354.986 401.846 316.091 C 411.673 341.095 416.143 359.605 414.652 386.871 C 415.649 391.004 416.474 393.237 420.475 395.484 C 429.207 400.389 439.213 402.979 448.144 407.674 C 459.707 413.753 470.836 423.33 482.712 428.44 C 470.39 468.192 453.791 524.723 450.54 566.096 C 408.723 609.22 370.966 649.663 336.252 699.207 C 314.773 729.863 299.982 756.485 281.604 788.127 C 273.119 809.339 264.381 824.478 256.342 847.986 C 246.614 877.131 240.827 907.447 239.137 938.126 C 238.613 949.591 240.176 964.864 238.72 975.632 C 230.326 1037.72 210.137 1080.64 286.144 1105.91 C 308.866 1132.85 329.295 1174.99 362.157 1191.82 C 447.782 1235.68 552.006 1228.25 645.118 1235.86 C 581.797 1260.47 515.694 1344.34 451.289 1345.02 C 442.26 1316.15 434.759 1284.41 426.308 1254.86 C 403.191 1258.51 365.458 1260.22 341.242 1262.13 z" fill="url(#Gradient1)" transform="translate(0,0)"></path>
<path d="M 281.604 788.127 C 280.732 782.046 288.922 740.553 290.802 732.363 C 318.83 610.263 355.66 497.54 414.652 386.871 C 415.649 391.004 416.474 393.237 420.475 395.484 C 429.207 400.389 439.213 402.979 448.144 407.674 C 459.707 413.753 470.836 423.33 482.712 428.44 C 470.39 468.192 453.791 524.723 450.54 566.096 C 408.723 609.22 370.966 649.663 336.252 699.207 C 314.773 729.863 299.982 756.485 281.604 788.127 z" fill="rgb(209,182,156)" transform="translate(0,0)"></path>
<path d="M 949.857 1219.47 C 1062.42 1204.59 1191.53 1185.88 1292.4 1129.8 C 1305.98 1122.24 1319.45 1111.83 1331.59 1102.02 C 1332.97 1108.31 1333.77 1114.3 1334.67 1120.66 C 1340.09 1154.24 1348.76 1202.27 1348.99 1236.28 C 1349.33 1285.95 1323.03 1365.31 1302.45 1411.4 C 1281.91 1395.33 1262.27 1377.65 1243.36 1360 C 1210.72 1329.56 1177.38 1296.43 1128.33 1303.28 C 1085.69 1309.23 1040.37 1352.32 1006.38 1377.36 C 985.734 1392.57 958.007 1414.22 936.22 1426.76 C 929.205 1427.56 908.826 1429.02 903.044 1430.27 C 933.66 1389.4 939.401 1369.84 950.455 1320.73 C 959.158 1289.79 957.054 1250.7 949.857 1219.47 z" fill="rgb(223,148,38)" transform="translate(0,0)"></path>
<path d="M 949.857 1219.47 C 1062.42 1204.59 1191.53 1185.88 1292.4 1129.8 C 1305.98 1122.24 1319.45 1111.83 1331.59 1102.02 C 1332.97 1108.31 1333.77 1114.3 1334.67 1120.66 C 1331.26 1121.34 1317.35 1136.19 1312.87 1139.93 C 1214.78 1221.74 1097.98 1276.55 975.964 1312.34 C 967.553 1314.8 958.743 1317.71 950.455 1320.73 C 959.158 1289.79 957.054 1250.7 949.857 1219.47 z" fill="rgb(154,77,23)" transform="translate(0,0)"></path>
<path d="M 924.938 1221.47 C 926.155 1221.79 927.797 1222.88 928.137 1223.99 C 940.672 1265.2 928.594 1328.39 916.493 1367.02 C 896.254 1372.6 873.497 1381.97 853.29 1388.68 C 831.003 1396.08 808.852 1402.77 786.5 1409.89 C 774.106 1389.59 754.081 1356.44 744.301 1335.63 L 743.15 1333.22 C 729.379 1304.4 711.641 1265.43 684.354 1247.31 C 677.013 1242.44 667.56 1239.32 659.229 1236.38 C 752.813 1236.05 832.032 1230.92 924.938 1221.47 z" fill="rgb(19,30,37)" transform="translate(0,0)"></path>
<path d="M 1310.69 111.144 C 1333.36 113.059 1355.65 118.135 1376.92 126.224 C 1446.43 149.875 1532.48 214.67 1590.18 260.405 C 1607.16 273.864 1625.72 293.209 1641.47 304.507 C 1637.78 325.053 1621.47 416.609 1623.58 432.547 C 1623.37 433.568 1622.84 435.089 1622.51 436.129 C 1615.6 438.832 1575.64 433.843 1566.07 432.643 C 1562.55 421.472 1558.7 410.412 1554.51 399.476 C 1515.24 295.676 1413.76 157.638 1310.69 111.144 z" fill="rgb(209,182,156)" transform="translate(0,0)"></path>
<path d="M 1310.69 111.144 C 1333.36 113.059 1355.65 118.135 1376.92 126.224 C 1377.18 127.27 1377.45 128.315 1377.72 129.361 C 1385.85 136.417 1398.47 146.877 1406.33 153.396 C 1434.5 176.771 1460.44 199.373 1485.49 225.952 C 1509.19 251.109 1525.03 272.823 1544.46 301.226 C 1555.36 317.17 1566.22 330.719 1575.89 347.887 C 1582.83 360.217 1588.1 371.973 1594.57 384.295 C 1603.25 400.954 1612.94 417.068 1623.58 432.547 C 1623.37 433.568 1622.84 435.089 1622.51 436.129 C 1615.6 438.832 1575.64 433.843 1566.07 432.643 C 1562.55 421.472 1558.7 410.412 1554.51 399.476 C 1515.24 295.676 1413.76 157.638 1310.69 111.144 z" fill="rgb(238,218,198)" transform="translate(0,0)"></path>
<path d="M 738.996 108.849 L 737.251 109.893 C 732.619 112.611 725.96 115.177 720.907 117.736 C 710.208 123.209 699.911 129.432 690.091 136.36 C 612.083 192.243 555.848 269.051 513.233 354.388 C 504.821 371.233 492.018 399.519 486.174 417.284 C 469.656 412.865 459.637 406.928 444.249 399.7 C 437.967 396.749 424.375 392.536 419.669 388.808 C 419.099 387.18 418.863 386.894 418.667 385.204 C 419.044 354.713 416.557 337.144 405.472 308.872 C 438.276 270.873 509.783 216.27 552.821 190.353 C 563.678 182.415 589.222 168.192 601.382 161.679 C 642.397 139.71 692.337 113.473 738.996 108.849 z" fill="rgb(209,182,156)" transform="translate(0,0)"></path>
<path d="M 552.821 190.353 C 553.321 193.356 552.774 193.966 550.266 197.121 C 540.772 209.064 530.03 219.918 520.217 231.666 C 499.894 255.99 480.706 281.24 462.714 307.337 C 452.877 321.765 443.966 336.804 436.036 352.363 C 431.571 360.981 424.215 378.525 418.667 385.204 C 419.044 354.713 416.557 337.144 405.472 308.872 C 438.276 270.873 509.783 216.27 552.821 190.353 z" fill="rgb(238,218,198)" transform="translate(0,0)"></path>
<path d="M 1334.58 1099.97 C 1371.79 1065.43 1397.97 1031.27 1414.62 982.746 C 1417.72 973.728 1443.96 958.97 1453.05 956.223 C 1461.41 966.044 1471.29 975.212 1479.49 984.83 C 1493.33 1001.05 1508.22 1024.44 1516.33 1044.18 C 1485.13 1045.48 1430.11 1055.05 1400.78 1065.52 C 1441.99 1083.43 1481.47 1107.85 1502.81 1149.46 L 1501.98 1149.74 C 1497.35 1151.31 1491.58 1153.81 1487.28 1155.98 C 1448.87 1175.3 1409.47 1186.81 1366.97 1192.87 C 1362.32 1193.53 1357.27 1194.55 1352.73 1195.97 L 1349.85 1196.48 C 1348.34 1184.93 1346.99 1173.36 1345.8 1161.78 C 1342.92 1141.91 1336.41 1119.77 1334.58 1099.97 z" fill="rgb(126,135,39)" transform="translate(0,0)"></path>
<path d="M 1345.8 1161.78 C 1400.47 1145.29 1444.85 1135.53 1502.81 1149.46 L 1501.98 1149.74 C 1497.35 1151.31 1491.58 1153.81 1487.28 1155.98 C 1448.87 1175.3 1409.47 1186.81 1366.97 1192.87 C 1362.32 1193.53 1357.27 1194.55 1352.73 1195.97 L 1349.85 1196.48 C 1348.34 1184.93 1346.99 1173.36 1345.8 1161.78 z" fill="rgb(93,81,24)" transform="translate(0,0)"></path>
<path d="M 1597.14 928.435 C 1599.42 928.211 1600.99 928.247 1603.27 928.242 L 1604.29 929.536 C 1603.87 940.553 1599.16 968.183 1597.47 980.065 C 1587.91 1049.56 1572.98 1118.21 1552.82 1185.4 C 1540.91 1179.72 1533.35 1173.67 1519.71 1168.61 C 1481.8 1174.49 1455.34 1212.83 1439.02 1244.26 C 1431.49 1231.4 1416.25 1215.55 1404.53 1206.54 C 1422.89 1204.1 1453.65 1193.62 1470.73 1186.94 C 1491.79 1178.04 1510.54 1167.81 1532.16 1159.93 C 1515.37 1123.02 1492.14 1094.62 1458.02 1072.74 C 1489.83 1066.59 1518.45 1066.81 1550.67 1066.96 C 1532.52 1019.37 1511.5 985.945 1475.47 949.924 C 1504.92 939.381 1565.55 930.415 1597.14 928.435 z" fill="rgb(19,30,37)" transform="translate(0,0)"></path>
<path d="M 1470.2 760.623 C 1473.2 758.888 1474.65 757.219 1477.85 758.38 C 1486.04 761.352 1493.6 769.136 1500.11 774.204 C 1540.44 805.617 1568.48 846.07 1589.59 892.197 C 1591.41 896.18 1593.07 900.343 1594.22 904.629 C 1592.41 905.764 1566.94 909.04 1562.77 909.687 C 1535.05 913.984 1507.66 919.414 1480.54 926.599 C 1456.21 933.048 1439.01 942.375 1417.06 953.911 C 1424.87 922.088 1433.88 898.159 1436.56 864.033 C 1439.34 846.968 1439.5 811.831 1438.69 794.438 C 1439.52 776.638 1462.85 772.468 1470.2 760.623 z" fill="rgb(126,135,39)" transform="translate(0,0)"></path>
<path d="M 1436.56 864.033 C 1476.8 859.51 1523.52 872.996 1559.58 889.909 C 1566.4 893.106 1587.97 903.547 1594.22 904.629 C 1592.41 905.764 1566.94 909.04 1562.77 909.687 C 1535.05 913.984 1507.66 919.414 1480.54 926.599 C 1456.21 933.048 1439.01 942.375 1417.06 953.911 C 1424.87 922.088 1433.88 898.159 1436.56 864.033 z" fill="rgb(93,81,24)" transform="translate(0,0)"></path>
<path d="M 1602.85 685.001 C 1605.56 687.703 1606.83 713.865 1607.25 718.96 C 1611.72 773.311 1610.4 827.736 1608.63 882.16 C 1596.37 862.833 1587.23 843.66 1573.73 824.868 C 1551 791.209 1538.93 778.559 1507.97 752.695 C 1533.1 726.755 1571.83 702.832 1602.85 685.001 z" fill="rgb(30,56,68)" transform="translate(0,0)"></path>
<path d="M 1349.85 1196.48 L 1352.73 1195.97 C 1383.84 1204.72 1413.1 1242.81 1429.14 1269.26 L 1421.27 1283.49 C 1418.07 1289.92 1413.82 1296 1409.85 1302.02 C 1391.3 1309.88 1360 1316.41 1339.84 1318.98 C 1343.72 1303.51 1346.9 1287.88 1349.39 1272.13 C 1355.18 1247.72 1353.13 1221.06 1349.85 1196.48 z" fill="rgb(126,135,39)" transform="translate(0,0)"></path>
<path d="M 1349.39 1272.13 C 1353.74 1272.88 1364.36 1272.11 1369.61 1272.18 C 1387.42 1272.36 1405.01 1276.21 1421.27 1283.49 C 1418.07 1289.92 1413.82 1296 1409.85 1302.02 C 1391.3 1309.88 1360 1316.41 1339.84 1318.98 C 1343.72 1303.51 1346.9 1287.88 1349.39 1272.13 z" fill="rgb(93,81,24)" transform="translate(0,0)"></path>
<path d="M 795.515 1429.76 C 812.804 1424.71 830.8 1419.63 847.807 1413.87 C 866.834 1407.42 885.711 1399.92 904.8 1393.49 C 889.738 1428.68 872.543 1437.53 843.228 1457.15 C 856.841 1451.97 893.208 1439.34 903.044 1430.27 C 908.826 1429.02 929.205 1427.56 936.22 1426.76 C 908.714 1448.05 859.629 1474.72 825.061 1481.12 C 818.093 1469.28 800.439 1441 795.515 1429.76 z" fill="rgb(154,77,23)" transform="translate(0,0)"></path>
<path d="M 1335.36 1335.58 C 1354.67 1348.72 1363.95 1358 1376.96 1376.97 C 1373.18 1383.29 1370.74 1387.59 1367.65 1394.23 C 1364.72 1400.95 1360.33 1408.33 1356.69 1414.8 C 1340.66 1412.42 1322.46 1411.2 1306.31 1410.51 C 1312.28 1399.16 1316.15 1387.06 1320.18 1374.93 C 1324.89 1362.39 1330.1 1347.83 1335.36 1335.58 z" fill="rgb(101,102,27)" transform="translate(0,0)"></path>
<path d="M 1320.18 1374.93 C 1339.02 1380.71 1350.29 1384.37 1367.65 1394.23 C 1364.72 1400.95 1360.33 1408.33 1356.69 1414.8 C 1340.66 1412.42 1322.46 1411.2 1306.31 1410.51 C 1312.28 1399.16 1316.15 1387.06 1320.18 1374.93 z" fill="rgb(93,81,24)" transform="translate(0,0)"></path>
<path d="M 1390.7 1329.99 C 1393.2 1329.69 1392.26 1329.67 1394.73 1330.38 C 1396.37 1334.62 1393.59 1348.92 1386.77 1349.29 L 1383.39 1345.76 L 1373.27 1337.05 C 1379.3 1334.24 1384.47 1332.31 1390.7 1329.99 z" fill="rgb(19,30,37)" transform="translate(0,0)"></path>
<metadata><recraft-signature>{"signed_by": "recraft", "signature_b64": "iBzf7bVYMRmXwsk5sZ/IUg+I4+ZaQd+q5mHh8DCUH8ZuZVWUHkWpzuiQzUU4csMxhBqFTi9BDb8cTxGDUwNbCA==", "signing_algo": "Ed25519", "generation_timestamp": 1775806318, "identifier": "3f13af80-4ea9-4096-a7b7-50a49101ff6f"}</recraft-signature></metadata></svg>