<svg xmlns="http://www.w3.org/2000/svg" height="1024" preserveAspectRatio="none" style="display: block;" version="1.1" viewBox="0 0 2048 2048" width="1024">
<defs>
	<linearGradient gradientUnits="userSpaceOnUse" id="Gradient1" x1="983.133" x2="922.384" y1="1371.93" y2="1338.8">
		<stop class="stop0" offset="0" stop-color="rgb(160,117,95)" stop-opacity="1"></stop>
		<stop class="stop1" offset="1" stop-color="rgb(182,144,118)" stop-opacity="1"></stop>
	</linearGradient>
	<linearGradient gradientUnits="userSpaceOnUse" id="Gradient2" x1="504.029" x2="498.109" y1="526.22" y2="457.011">
		<stop class="stop0" offset="0" stop-color="rgb(69,3,16)" stop-opacity="1"></stop>
		<stop class="stop1" offset="1" stop-color="rgb(47,1,22)" stop-opacity="1"></stop>
	</linearGradient>
</defs>
<path d="M 0 0 L 2048 0 L 2048 2048 L 0 2048 L 0 0 z" fill="rgb(7,173,204)" transform="translate(0,0)"></path>
<path d="M 964.501 113.398 C 1010.83 110.742 1079.6 165.5 1105.02 202.654 C 1131.22 201.186 1154.91 202.099 1180.52 208.195 C 1186.32 205.282 1192.14 202.413 1197.98 199.588 C 1251.78 173.579 1312.38 151.829 1371.98 172.541 C 1417.98 188.528 1451.62 229.75 1469.46 273.538 C 1475.55 288.503 1482.55 309.449 1489.26 323.275 L 1489.92 324.6 C 1590.77 376.999 1657.63 456.509 1708.36 557.117 C 1714.35 568.894 1719.94 580.869 1725.12 593.022 C 1728.09 600.158 1739.79 631.667 1743.52 634.895 C 1804.68 687.783 1846.02 742.954 1888.46 812.239 C 1980.69 962.818 1968.55 1141.58 1923.38 1305.59 C 1875.59 1479.16 1788.19 1641.39 1674.39 1780.53 C 1625.38 1840.32 1578.58 1889.49 1511.01 1929.25 C 1493.71 1926.23 1480.49 1924.73 1462.83 1919.96 C 1384.06 1898.01 1313.78 1852.72 1261.23 1790.07 C 1227.95 1750.87 1197.34 1709.62 1159.55 1674.46 C 1146.69 1662.49 1123.91 1641.63 1107.88 1635.54 C 1092.9 1629.84 1012.68 1635.57 990.625 1636.35 C 907.653 1732.3 785.843 1803.08 665.694 1841.74 C 638.643 1850.45 605.582 1857.93 577.379 1855.6 C 523.338 1851.12 465.094 1817.08 430.194 1776.39 C 417.974 1761.95 398.723 1732.35 392.87 1714.27 C 389.96 1712.21 387.085 1710.11 384.244 1707.96 C 354.071 1684.89 351.921 1644.21 374.694 1615.48 C 373.51 1607.63 372.733 1599.72 372.364 1591.78 C 371.837 1578.84 374.502 1521.03 392.311 1520.96 C 402.324 1525.54 412.403 1554.87 418.455 1567.1 C 419.589 1558.46 420.821 1544.17 424.375 1536.2 C 425.526 1533.62 430.178 1533.24 433.306 1532.55 C 435.15 1522.62 433.344 1509.28 437.731 1495.75 C 440.652 1484.98 447.65 1464.44 457.137 1458.27 C 466.605 1452.11 478.173 1484.1 480.702 1489.61 C 481.086 1469.89 492.219 1392.74 520.01 1441.71 C 519.049 1425.97 512.296 1359.18 544.927 1391.24 C 554.693 1400.84 563.846 1409.99 574.251 1419.09 C 573.043 1402.25 572.574 1390.12 574.53 1373.13 C 579.15 1333.01 604.972 1355.97 622.724 1370.51 C 622.784 1358.98 623.83 1304.97 638.652 1298.82 C 645.708 1295.9 674.415 1310.87 683.756 1315.23 C 684.397 1303.79 685.302 1291.02 687.917 1279.96 C 695.525 1247.77 700.765 1248.02 724.978 1263.98 C 729.634 1254.68 732.669 1245.25 735.73 1235.35 C 733.258 1230.42 726.078 1218.1 727.593 1213.01 C 730.049 1204.75 737.625 1208.85 741.842 1211.67 C 744.706 1208.65 745.346 1196.88 745.851 1192.33 C 751.188 1144.39 745.462 1096.86 736.805 1049.69 C 719.201 1037.28 714.357 1030.05 703.679 1011.14 C 702.085 1023.75 693.906 1073.46 685.088 1079.54 C 667.643 1084.12 635.288 1029.06 628.892 1015.69 C 627.541 1024.82 625.417 1034.33 623.25 1042.87 C 611.882 1087.62 603.541 1108.08 568.34 1061.14 C 556.774 1045.72 550.713 1030.47 546.577 1011.14 C 537.877 1029.76 527.108 1049.04 515.962 1066.18 C 502.261 1087.25 493.428 1071.04 486.515 1056.9 C 475.368 1034.1 469.853 1012.37 468.653 987.168 C 459.811 1000.61 449.161 1013.73 439.834 1026.92 C 432.976 1036.62 426.444 1043.94 415.391 1048.84 C 394.627 1027.79 390.031 981.607 389.784 953.391 C 371.125 974.022 355.512 994.345 339.141 1016.82 C 337.907 1018.52 331.972 1017.76 330.183 1015.6 C 312.708 994.496 309.432 965.462 308.291 939.122 C 300.45 950.218 260.7 1012.03 255.294 1015.56 C 246.544 1015.32 239.51 998.372 236.598 991.13 C 227.52 968.547 228.787 944.175 229.151 920.352 C 222.063 927 221.347 927.985 214.897 936.244 C 207.832 944.596 198.713 967.178 190.37 972.698 C 178.069 980.836 164.97 934.552 163.461 928.987 C 157.736 938.03 144.824 966.122 138.126 969.481 C 134.155 968.273 128.962 961.257 126.648 957.679 C 112.287 935.473 110.183 903.859 115.382 878.665 C 105.596 869.685 85.857 849.74 86.5126 836.122 C 89.8921 765.917 113.684 686.242 141.262 622.361 C 163.458 570.945 196.013 505.69 235.217 467.192 C 303.814 399.831 413.122 382.61 504.17 370.496 C 530.634 366.757 557.135 363.286 583.669 360.084 C 646.217 353.011 706.59 347.075 761.011 313.543 C 767.466 309.431 779.613 302.911 784.296 296.736 C 812.12 260.058 834.637 219.32 865.561 184.797 C 893.421 153.693 919.642 117.26 964.501 113.398 z" fill="rgb(46,7,26)" transform="translate(0,0)"></path>
<path d="M 1025.21 345.699 C 1060.43 313.337 1103.5 272.8 1144.12 248.369 C 1199.64 214.973 1284.75 168.91 1351.29 184.999 C 1388.05 193.887 1417.62 217.042 1437.53 248.367 C 1455.16 272.609 1473.35 324.916 1483.49 353.393 C 1493.92 382.075 1504.07 410.858 1513.95 439.737 C 1524.43 470.308 1539.82 515.033 1553.59 544.6 C 1548.85 521.871 1540.84 500.944 1535.75 478.951 C 1526.29 438.099 1510.05 397.123 1500.1 356.973 C 1498.64 352.449 1497.1 347.949 1495.5 343.474 C 1512.13 350.684 1529.19 364.084 1543.79 374.987 C 1619.2 431.283 1682.46 525.003 1717.02 612.209 C 1738.79 665.629 1754.42 721.35 1763.6 778.3 C 1765.46 784.332 1768.41 817.713 1769.63 826.688 C 1777.87 768.021 1767.8 720.311 1752.04 664.765 C 1760.18 672.573 1770.37 681.861 1776.65 691.004 C 1805.16 721.781 1830.91 754.997 1853.61 790.273 C 1921.37 894.199 1944.27 988.809 1938.82 1112.48 C 1938.37 1122.02 1937.74 1131.55 1936.93 1141.07 C 1936.1 1162.05 1930.21 1191.95 1926.31 1212.94 C 1909.5 1299.94 1882.92 1384.76 1847.09 1465.8 C 1834.2 1495.31 1819 1525.61 1804.91 1554.7 C 1763.03 1525.03 1762.4 1508.85 1741.8 1465.95 C 1745.04 1460.76 1752.7 1444.4 1755.61 1438.54 C 1768.21 1412.96 1780.42 1387.19 1792.22 1361.23 L 1791.21 1359.46 C 1774.15 1392.47 1755.05 1424.36 1738.34 1457.29 C 1728.55 1443.25 1728.54 1407.4 1722.53 1388.63 C 1735.5 1364.64 1751.11 1342.34 1764.35 1316.44 C 1786.31 1273.47 1800.85 1236.47 1818.34 1192.43 L 1817.16 1190.56 C 1799.55 1231.61 1780 1271.8 1758.56 1310.99 C 1746.72 1332.21 1732.72 1353.91 1720.33 1375.06 C 1714.45 1363.64 1713.56 1259.79 1712.73 1238.16 C 1688.66 1273.93 1661.97 1322.81 1631.63 1354 C 1626.44 1357.43 1613.34 1370.2 1605.8 1375.82 C 1612.73 1365.07 1623.34 1357.85 1630.08 1346.83 C 1630.23 1338.98 1646.83 1304.32 1649.89 1292.42 C 1666.8 1226.48 1685.33 1140.48 1684.72 1073.15 C 1692.03 1043.16 1697.12 1019.37 1703.46 989.39 C 1705.51 982.83 1707.87 969.75 1709.38 962.594 L 1707.97 960.759 C 1703.17 981.691 1697.15 1005.59 1690.2 1025.82 C 1646.09 1148.24 1577.7 1297.44 1453.11 1354.64 C 1404 1377.18 1335.76 1395.71 1282.23 1406.82 C 1269.87 1411.39 1256.57 1415.22 1243.99 1419.81 C 1222.4 1427.76 1201.47 1437.4 1181.39 1448.64 C 1143.35 1470.03 1109.36 1496.66 1076.84 1525.63 C 1027.88 1569.24 987.734 1620.29 940.061 1665.4 C 902.816 1700.46 861.605 1731.06 817.266 1756.56 C 754.314 1792.57 669.964 1834.23 596.626 1840.21 C 545.547 1844.37 481.801 1808.38 447.698 1772.8 C 435.341 1759.91 421.452 1738.2 412.261 1722.01 C 482.116 1743.39 543.28 1729.92 610.441 1708.18 C 810.988 1643.37 958.796 1485.28 1087.4 1325.7 C 1179.25 1211.67 1273.24 1092.68 1398.41 1013.44 C 1440.2 988.104 1486.04 969.191 1532.9 953.129 C 1593.04 932.515 1672.01 908.665 1638.81 825.653 C 1621.21 781.641 1573.01 751.365 1529.32 734.978 C 1540.84 742.997 1551.94 751.616 1562.56 760.799 C 1588.99 783.91 1619.21 817.815 1621.31 854.724 C 1622.03 867.284 1618.81 879.195 1610.14 888.583 C 1602.98 896.342 1593.28 901.06 1583.05 903.229 C 1520.07 916.581 1359.65 875.222 1294.4 856.539 C 1256.03 845.551 1220.13 828.678 1179.98 825.064 C 1120.74 819.732 1065.42 832.614 1008.36 846.764 C 945.229 862.421 883.111 882.013 819.941 897.26 C 799.063 902.079 778.075 906.413 756.996 910.257 C 709.349 919.367 658.637 926.579 610.06 921.643 C 557.016 916.254 501.975 899.843 452.494 880.419 C 398.447 859.202 346.108 832.616 292.022 811.54 C 275.489 805.097 254.723 796.883 237.69 792.831 C 220.12 788.772 202.083 787.104 184.066 787.869 C 152.591 789.439 130.33 797.822 109.309 820.921 C 107.103 824.006 104.858 827.063 102.575 830.091 C 104.102 818.924 104.435 807.286 106.184 796.193 C 118.437 718.459 146.081 643.085 181.522 573.016 C 198.685 539.084 222.725 499.723 251.04 474.26 C 318.59 413.515 414.535 398.281 501.145 386.751 C 527.705 383.097 554.29 379.627 580.898 376.342 C 621.449 371.572 660.543 367.65 700.116 356.775 C 744.717 344.517 782.77 317.419 822.789 294.721 C 937.84 229.467 1029.42 212.778 1159.03 218.109 C 1152.73 221.978 1147.46 224.768 1140.87 228.151 C 1094.08 260.09 1056.94 292.714 1019.88 336.187 C 1006.35 352.06 994.464 369.228 981.348 385.397 C 994.469 376.511 1013.87 353.04 1025.21 345.699 z" fill="rgb(196,57,90)" transform="translate(0,0)"></path>
<path d="M 102.575 830.091 C 104.102 818.924 104.435 807.286 106.184 796.193 C 118.437 718.459 146.081 643.085 181.522 573.016 C 198.685 539.084 222.725 499.723 251.04 474.26 C 318.59 413.515 414.535 398.281 501.145 386.751 C 527.705 383.097 554.29 379.627 580.898 376.342 C 621.449 371.572 660.543 367.65 700.116 356.775 C 744.717 344.517 782.77 317.419 822.789 294.721 C 937.84 229.467 1029.42 212.778 1159.03 218.109 C 1152.73 221.978 1147.46 224.768 1140.87 228.151 C 1021.89 231.43 932.869 260.325 828.76 317.21 C 796.806 334.669 754.537 359.899 720.624 370.353 C 678.122 383.455 624.803 386.259 580.525 390.986 C 543.256 395.226 506.153 400.82 469.29 407.756 C 392.448 422.549 316.031 442.972 259.112 501.556 C 229.914 531.609 184.302 608.875 166.096 648.422 C 152.297 679.2 140.183 710.705 129.806 742.799 C 125.541 756.009 121.581 769.378 118.076 782.781 C 115.179 793.861 114.65 805.155 110.143 815.591 C 109.376 817.367 109.292 819.035 109.309 820.921 C 107.103 824.006 104.858 827.063 102.575 830.091 z" fill="rgb(247,98,127)" transform="translate(0,0)"></path>
<path d="M 1697.49 912.278 C 1698.82 915.808 1698.79 916.578 1699.16 920.209 C 1698.25 938.709 1697.28 955.987 1695.16 974.378 C 1693.75 986.627 1686.89 1016.12 1690.2 1025.82 C 1646.09 1148.24 1577.7 1297.44 1453.11 1354.64 C 1404 1377.18 1335.76 1395.71 1282.23 1406.82 C 1260.21 1401.76 1204.85 1425.72 1183.92 1435.9 C 1171.91 1441.73 1160.05 1449.36 1146.72 1453.33 C 1178.26 1436.38 1207.79 1415.02 1240.33 1400.05 C 1317.25 1364.66 1398.92 1341.28 1469.29 1292.74 C 1590.85 1208.88 1671.25 1055.18 1697.49 912.278 z" fill="rgb(247,98,127)" transform="translate(0,0)"></path>
<path d="M 1025.21 345.699 C 1060.43 313.337 1103.5 272.8 1144.12 248.369 C 1199.64 214.973 1284.75 168.91 1351.29 184.999 C 1388.05 193.887 1417.62 217.042 1437.53 248.367 C 1431.15 247.846 1400.27 217.845 1375.54 214.666 C 1286.71 203.246 1208.76 262.994 1132.43 298.946 C 1113.94 307.658 1038.2 350.782 1025.21 345.699 z" fill="rgb(247,98,127)" transform="translate(0,0)"></path>
<path d="M 1495.5 343.474 C 1512.13 350.684 1529.19 364.084 1543.79 374.987 C 1619.2 431.283 1682.46 525.003 1717.02 612.209 C 1738.79 665.629 1754.42 721.35 1763.6 778.3 C 1763.18 779.951 1763.11 779.719 1762.16 781.228 C 1760.17 780.414 1760.26 780.171 1759.57 777.799 C 1713.06 617.869 1630.42 463.474 1500.1 356.973 C 1498.64 352.449 1497.1 347.949 1495.5 343.474 z" fill="rgb(247,98,127)" transform="translate(0,0)"></path>
<path d="M 1684.72 1073.15 C 1692.03 1043.16 1697.12 1019.37 1703.46 989.39 C 1708.57 1047.4 1712.51 1102.72 1711.77 1161.1 C 1711.64 1170.89 1711.15 1209.24 1714.4 1215.11 C 1704.5 1235.57 1684.44 1265.73 1672.03 1285.53 C 1660.47 1303.96 1643.65 1330.48 1630.08 1346.83 C 1630.23 1338.98 1646.83 1304.32 1649.89 1292.42 C 1666.8 1226.48 1685.33 1140.48 1684.72 1073.15 z" fill="rgb(125,34,67)" transform="translate(0,0)"></path>
<path d="M 1789.68 1025.99 L 1791.55 1028.67 C 1787.01 1046.64 1783.86 1065.82 1778.74 1083.49 C 1763.99 1134.32 1739.21 1192.58 1712.73 1238.16 C 1688.66 1273.93 1661.97 1322.81 1631.63 1354 C 1626.44 1357.43 1613.34 1370.2 1605.8 1375.82 C 1612.73 1365.07 1623.34 1357.85 1630.08 1346.83 C 1643.65 1330.48 1660.47 1303.96 1672.03 1285.53 C 1684.44 1265.73 1704.5 1235.57 1714.4 1215.11 C 1739.29 1165.9 1780.83 1081.12 1789.68 1025.99 z" fill="rgb(46,7,26)" transform="translate(0,0)"></path>
<path d="M 1776.65 691.004 C 1805.16 721.781 1830.91 754.997 1853.61 790.273 C 1921.37 894.199 1944.27 988.809 1938.82 1112.48 C 1938.37 1122.02 1937.74 1131.55 1936.93 1141.07 L 1935.68 1142.35 C 1935.01 1140.38 1937.67 1103.52 1937.86 1098.86 C 1942.86 980.858 1910 868.725 1839.89 773.424 C 1837.02 769.524 1833.4 764.91 1830.61 760.844 C 1827.05 752.713 1821.22 750.554 1817.25 744.838 C 1815.12 745.847 1812.04 745.97 1809.75 745.281 C 1807.9 743.103 1807.19 741.931 1804.62 740.623 C 1800.49 742.491 1799.25 743.249 1795.52 745.852 C 1797.04 754.084 1823.64 788.049 1830.43 798.391 C 1890.7 890.192 1921.21 994.878 1930.12 1103.71 C 1930.75 1111.35 1934.25 1134.74 1932.44 1141.85 C 1925.07 1058.55 1916.64 989.067 1886.16 909.878 C 1868.57 864.174 1847.79 827.309 1820.57 786.355 C 1811.21 772.259 1797.2 756.871 1789.55 742.93 C 1784.28 733.346 1776.29 702.154 1776.65 691.004 z" fill="rgb(247,98,127)" transform="translate(0,0)"></path>
<path d="M 1789.68 1025.99 C 1791.75 1016.33 1794.1 1006.3 1796.08 996.743 L 1796.89 996.94 C 1795.98 1006.64 1793.37 1018.89 1791.55 1028.67 L 1789.68 1025.99 z" fill="rgb(125,34,67)" transform="translate(0,0)"></path>
<path d="M 1791.21 1359.46 C 1793.63 1353.36 1794.93 1349.27 1798.91 1344.04 L 1799.7 1343.97 C 1797.28 1350.63 1795.34 1354.82 1792.22 1361.23 L 1791.21 1359.46 z" fill="rgb(125,34,67)" transform="translate(0,0)"></path>
<path d="M 1700.78 896.948 C 1700.66 902.141 1700.12 915.492 1699.16 920.209 C 1698.79 916.578 1698.82 915.808 1697.49 912.278 C 1698.31 905.84 1699.05 903.135 1700.78 896.948 z" fill="rgb(193,90,121)" transform="translate(0,0)"></path>
<path d="M 1707.97 960.759 C 1708.54 957.534 1709.07 952.246 1710.85 949.773 C 1711.37 954.367 1710.29 958.03 1709.38 962.594 L 1707.97 960.759 z" fill="rgb(125,34,67)" transform="translate(0,0)"></path>
<path d="M 1817.16 1190.56 C 1819.14 1184.98 1819.75 1183.15 1823.21 1178.39 C 1821.65 1183.04 1820.12 1187.88 1818.34 1192.43 L 1817.16 1190.56 z" fill="rgb(125,34,67)" transform="translate(0,0)"></path>
<path d="M 846.665 480.05 C 901.676 488.868 951.99 478.819 998.86 447.96 C 1015.34 437.106 1033.34 421.05 1048.06 407.867 C 1064.79 392.945 1081.21 377.682 1097.31 362.088 C 1108.56 351.027 1119.86 338.806 1131.62 328.378 C 1181.72 283.946 1242.3 243.209 1310.11 234.45 C 1407.01 221.934 1451.8 326.515 1469.78 404.138 C 1472.22 414.685 1475.13 427.439 1476.17 438.197 C 1487.44 459.741 1439.68 527.989 1429.48 548.977 C 1421.42 565.585 1414.06 583.521 1404.38 599.231 C 1398.79 607.734 1373.21 643.229 1365.62 647.11 C 1328.7 691.096 1276.37 710.961 1219.59 705.527 C 1161.5 699.969 1115.4 668.304 1081.1 622.22 C 1076.97 618.846 1060.16 593.594 1055.67 587.273 C 1025.28 544.401 1006.11 518.189 953.449 502.304 C 942.04 498.863 930.938 496.822 919.672 493.818 C 902.669 494.299 861.601 487.817 846.665 480.05 z" fill="rgb(125,34,67)" transform="translate(0,0)"></path>
<path d="M 846.665 480.05 C 901.676 488.868 951.99 478.819 998.86 447.96 C 1015.34 437.106 1033.34 421.05 1048.06 407.867 C 1064.79 392.945 1081.21 377.682 1097.31 362.088 C 1108.56 351.027 1119.86 338.806 1131.62 328.378 C 1181.72 283.946 1242.3 243.209 1310.11 234.45 C 1407.01 221.934 1451.8 326.515 1469.78 404.138 C 1472.22 414.685 1475.13 427.439 1476.17 438.197 C 1470.53 427.669 1466.46 401.194 1462.33 388.504 C 1447.84 343.93 1409.22 276.114 1361.43 260.678 C 1282.02 235.029 1181.53 308.852 1126.36 360.501 C 1078.89 404.938 1038 455.616 977.428 481.976 C 954.48 491.742 940.031 489.501 919.672 493.818 C 902.669 494.299 861.601 487.817 846.665 480.05 z" fill="rgb(46,7,26)" transform="translate(0,0)"></path>
<path d="M 1081.1 622.22 C 1086.4 624.561 1091.53 630.195 1096.32 633.92 C 1105.18 640.896 1114.39 647.425 1123.9 653.482 C 1182.8 690.395 1263.66 690.922 1326.08 664.181 C 1335.18 660.279 1356.59 646.316 1365.62 647.11 C 1328.7 691.096 1276.37 710.961 1219.59 705.527 C 1161.5 699.969 1115.4 668.304 1081.1 622.22 z" fill="rgb(94,28,54)" transform="translate(0,0)"></path>
<path d="M 1031.84 526.241 C 1039.08 510.328 1049.7 492.189 1058.54 477.067 C 1094.19 416.085 1131.74 369.949 1200.54 344.746 C 1242.21 329.784 1297.22 317.157 1339.51 336.362 C 1374.79 352.387 1407.47 394.261 1419.19 430.52 C 1427.02 454.761 1444.29 517.21 1431.03 539.679 C 1411.12 534.491 1401.18 530.601 1382.14 522.794 C 1380.62 524.545 1380.76 524.495 1380.08 526.741 C 1380.06 533.4 1377.77 542.46 1375.26 548.61 C 1342.35 628.869 1238.54 662.111 1160.99 630.363 C 1112.11 610.348 1075.98 570.98 1081.72 515.659 C 1083.47 498.85 1089.33 484.283 1095.57 468.793 C 1089.5 472.201 1084.31 478.62 1079.45 483.651 C 1063.49 500.192 1052.95 516.137 1031.84 526.241 z" fill="rgb(46,7,26)" transform="translate(0,0)"></path>
<path d="M 1031.84 526.241 C 1039.08 510.328 1049.7 492.189 1058.54 477.067 C 1094.19 416.085 1131.74 369.949 1200.54 344.746 C 1242.21 329.784 1297.22 317.157 1339.51 336.362 C 1374.79 352.387 1407.47 394.261 1419.19 430.52 C 1427.02 454.761 1444.29 517.21 1431.03 539.679 C 1411.12 534.491 1401.18 530.601 1382.14 522.794 C 1380.62 524.545 1380.76 524.495 1380.08 526.741 C 1380.92 519.916 1379.76 504.986 1377.77 498.256 C 1367.01 461.806 1339.95 424.459 1307.58 404.862 C 1272.16 383.418 1230.66 383.135 1191.76 392.614 C 1161.89 399.89 1128.67 417.387 1110.6 442.722 C 1104.01 451.955 1101.08 459.517 1095.57 468.793 C 1089.5 472.201 1084.31 478.62 1079.45 483.651 C 1063.49 500.192 1052.95 516.137 1031.84 526.241 z" fill="rgb(94,28,54)" transform="translate(0,0)"></path>
<path d="M 1190.8 411.43 C 1221.31 401.999 1254.95 400.695 1283.86 416.635 C 1318.01 435.881 1347.71 467.708 1361.19 504.852 C 1368.23 524.228 1360.44 540.084 1351.91 557.062 C 1329.09 602.49 1266.7 624.308 1218 620.83 C 1202.62 621.861 1164.51 609.075 1150.38 601.294 C 1055.54 549.084 1104.05 437.094 1190.8 411.43 z" fill="rgb(75,153,121)" transform="translate(0,0)"></path>
<path d="M 1190.8 411.43 C 1221.31 401.999 1254.95 400.695 1283.86 416.635 C 1318.01 435.881 1347.71 467.708 1361.19 504.852 C 1368.23 524.228 1360.44 540.084 1351.91 557.062 C 1329.09 602.49 1266.7 624.308 1218 620.83 C 1219.82 619.756 1221.25 619.516 1223.16 618.681 C 1275.53 595.696 1295.17 536.024 1274.69 484.126 C 1264.09 456.961 1243.68 434.759 1217.51 421.903 C 1207.87 417.283 1200.61 415.756 1192.35 412.125 L 1190.8 411.43 z" fill="rgb(254,254,254)" transform="translate(0,0)"></path>
<path d="M 1187.58 463.07 C 1195.97 456.026 1201.22 451.567 1213.09 452.445 C 1221.79 453.074 1229.83 457.281 1235.31 464.064 C 1241 470.889 1243.73 479.705 1242.89 488.55 C 1241.66 500.661 1235.97 506.366 1226.84 513.557 C 1227.02 517.683 1227.49 521.874 1227.68 526.03 C 1228.87 552.125 1210.34 572.809 1183.91 573.188 C 1171.05 573.426 1158.66 568.413 1149.58 559.307 C 1113.73 523.822 1143.48 462.765 1187.58 463.07 z" fill="rgb(16,9,6)" transform="translate(0,0)"></path>
<path d="M 1187.58 463.07 C 1195.97 456.026 1201.22 451.567 1213.09 452.445 C 1221.79 453.074 1229.83 457.281 1235.31 464.064 C 1241 470.889 1243.73 479.705 1242.89 488.55 C 1241.66 500.661 1235.97 506.366 1226.84 513.557 C 1193.24 523.279 1170.14 493.29 1187.58 463.07 z" fill="rgb(254,254,254)" transform="translate(0,0)"></path>
<path d="M 529.642 499.332 C 574.795 493.154 599.756 517.099 574.366 559.12 C 537.157 620.702 458.037 645.353 392.223 663.263 C 377.178 666.891 361.975 671.366 347.053 675.588 C 353.949 651.261 371.632 618.958 387.554 598.405 C 423.285 552.281 469.892 508.1 529.642 499.332 z" fill="rgb(28,9,29)" transform="translate(0,0)"></path>
<path d="M 986.163 546.277 C 996.834 552.927 1023.8 584.576 1032.35 594.805 C 1067.63 637.522 1101.69 676.91 1149.43 706.186 C 1253.35 769.918 1381.3 740.086 1443.75 634.701 C 1440.17 648.205 1437.92 654.95 1431.91 667.548 C 1414.57 704.107 1387.41 735.124 1353.46 757.128 C 1315.29 781.785 1276.01 785.229 1233.13 775.666 C 1126.44 751.87 1064.74 658.799 1006.26 575.181 C 999.556 565.603 992.518 556.142 986.163 546.277 z" fill="rgb(125,34,67)" transform="translate(0,0)"></path>
<path d="M 703.329 507.859 C 703.91 503.025 704.509 500.641 705.777 495.915 C 731.218 587.488 655.986 652.747 574.599 676.038 C 531.406 688.398 475.995 687.129 431.16 682.305 C 435.388 681.66 451.894 678.543 454.668 678.461 C 476.197 673.934 537.441 650.794 557.794 640.42 C 618.744 609.355 679.16 575.253 703.329 507.859 z" fill="rgb(125,34,67)" transform="translate(0,0)"></path>
<path d="M 703.329 507.859 C 705.973 515.274 694.471 543.093 690.818 550.881 C 663.371 609.402 604.515 640.467 546.164 660.735 C 532.783 665.383 465.268 685.751 454.668 678.461 C 476.197 673.934 537.441 650.794 557.794 640.42 C 618.744 609.355 679.16 575.253 703.329 507.859 z" fill="rgb(46,7,26)" transform="translate(0,0)"></path>
<path d="M 510.297 472.593 C 473.478 478.572 434.102 495.547 403.45 516.353 C 399.041 519.346 380.475 535.91 378.147 536.745 C 382.063 529.788 388.643 523.833 394.367 518.386 C 423.687 490.484 462.864 470.952 501.626 460.185 C 545.934 447.878 601.179 443.181 638.129 475.689 C 630.241 473.996 622.552 471.663 614.616 472.851 C 621.062 475.935 630.143 476.724 634.086 481.961 C 634.218 485.021 634.764 483.815 632.993 485.887 L 630.802 485.306 C 628.569 488.515 632.587 487.916 630.623 492.041 C 624.085 494.804 608.052 497.414 600.495 498.901 C 549.254 474.844 517.295 485.311 464.608 498.485 C 464.993 497.582 504.571 482.672 510.297 472.593 z" fill="url(#Gradient2)" transform="translate(0,0)"></path>
<path d="M 510.297 472.593 C 539.461 465.178 586.479 460.555 614.616 472.851 C 621.062 475.935 630.143 476.724 634.086 481.961 C 634.218 485.021 634.764 483.815 632.993 485.887 L 630.802 485.306 C 628.569 488.515 632.587 487.916 630.623 492.041 C 624.085 494.804 608.052 497.414 600.495 498.901 C 549.254 474.844 517.295 485.311 464.608 498.485 C 464.993 497.582 504.571 482.672 510.297 472.593 z" fill="rgb(247,98,127)" transform="translate(0,0)"></path>
<path d="M 1118.38 873.29 C 1120.66 872.691 1122.36 872.447 1124.02 874.391 C 1131.13 882.759 1135.58 893.802 1140.36 903.653 C 1173.52 972.114 1188.2 1055.99 1188.28 1131.64 C 1139.75 1090.54 1056.51 1093.99 1001.93 1119.51 C 963.861 1135.18 931.738 1158.58 897.672 1180.51 C 855.353 1207.76 828.697 1228.13 794.988 1265.65 C 746.548 1319.57 710.823 1378.31 677.292 1442.38 C 655.54 1483.95 635.674 1522.83 619.095 1566.9 C 583.493 1540.18 562.569 1530.79 572.959 1587.75 C 574.531 1596.37 576.909 1604.98 577.736 1613.73 L 577.864 1615.17 C 564.628 1602.72 551.796 1589.1 538.021 1577.44 C 518.361 1560.79 515.51 1573.85 513.593 1591.76 C 511.803 1599.03 512.982 1628.25 513.307 1636.76 C 508.226 1628.4 479.972 1594.99 472.78 1586.95 C 483.884 1573.68 494.83 1557.19 507.208 1545.45 C 523.041 1530.43 537.946 1519.86 552.969 1503.55 C 577.202 1477.23 595.141 1450.66 620.088 1424.71 C 651.674 1391.86 684.317 1368.53 708.493 1329.01 C 722.429 1306.23 731.021 1285.98 740.966 1261.8 C 771.036 1188.66 769.931 1126.11 752.427 1049.59 C 763.912 1035.53 779.035 997.514 782.763 979.687 C 798.705 998.06 820.569 1018.15 844.666 1024.11 C 860.515 1028.02 859.455 966.658 859.951 957.612 C 879.077 976.242 900.75 989.832 927.965 990.021 C 934.343 970.376 933.832 940.595 934.174 919.678 C 989.303 902.206 1061.76 882.586 1118.38 873.29 z" fill="rgb(69,24,50)" transform="translate(0,0)"></path>
<path d="M 1055.11 1566.34 C 1073.52 1550.85 1091.1 1533.42 1109.3 1518.29 C 1161.56 1474.85 1223.05 1437.37 1289.77 1421.51 C 1342.93 1408.82 1398 1396.29 1448.48 1374.84 C 1544.2 1334.15 1608.5 1244.61 1653.1 1154.14 C 1666.33 1127.3 1674.32 1100.83 1684.72 1073.15 C 1685.33 1140.48 1666.8 1226.48 1649.89 1292.42 C 1646.83 1304.32 1630.23 1338.98 1630.08 1346.83 C 1623.34 1357.85 1612.73 1365.07 1605.8 1375.82 C 1613.34 1370.2 1626.44 1357.43 1631.63 1354 C 1661.97 1322.81 1688.66 1273.93 1712.73 1238.16 C 1713.56 1259.79 1714.45 1363.64 1720.33 1375.06 C 1694.7 1409.87 1671.2 1442.11 1643.08 1475.1 C 1601.08 1523.6 1554.51 1567.95 1504.03 1607.55 C 1489.35 1618.99 1458.94 1641.82 1443.09 1651.11 C 1433.6 1611.78 1430.88 1579.79 1410.2 1544.2 L 1409.53 1544.02 C 1402.93 1532.45 1386.46 1517.77 1376.1 1509.65 C 1380.9 1507.51 1386.7 1505.32 1391.61 1503.52 C 1463.51 1477.52 1530.22 1433.96 1575.72 1371.74 C 1588 1354.94 1635.97 1270.84 1636.32 1252.59 L 1635.48 1252.94 C 1634.63 1255.74 1633.98 1257.38 1632.62 1259.96 C 1612.45 1298.34 1588.09 1334.38 1560 1367.42 C 1546.22 1383.66 1529.56 1401.84 1513.34 1415.71 C 1397.43 1514.82 1236.99 1521.19 1095.37 1556.45 C 1082.02 1559.77 1068.18 1562.27 1055.11 1566.34 z" fill="rgb(69,24,50)" transform="translate(0,0)"></path>
<path d="M 1712.73 1238.16 C 1713.56 1259.79 1714.45 1363.64 1720.33 1375.06 C 1694.7 1409.87 1671.2 1442.11 1643.08 1475.1 C 1601.08 1523.6 1554.51 1567.95 1504.03 1607.55 C 1489.35 1618.99 1458.94 1641.82 1443.09 1651.11 C 1433.6 1611.78 1430.88 1579.79 1410.2 1544.2 C 1423.36 1539.42 1436.32 1534.12 1449.07 1528.32 C 1514.32 1498.9 1575.87 1453.53 1611.06 1390.98 C 1618.02 1378.62 1626.51 1367.48 1631.63 1354 C 1661.97 1322.81 1688.66 1273.93 1712.73 1238.16 z" fill="rgb(125,34,67)" transform="translate(0,0)"></path>
<path d="M 906.212 1196.64 C 922.406 1182.56 940.56 1170.9 958.74 1159.71 C 1037.06 1111.5 1099.48 1097.83 1182.23 1144.37 C 1140.37 1187.43 1100.14 1232.04 1061.63 1278.12 C 1056.05 1275.84 1051.18 1274.1 1046.14 1270.77 C 1018.6 1254.03 1005.3 1246.42 996.902 1285.99 C 993.567 1301.7 991.559 1315.94 989.85 1332.02 C 979.518 1325.38 969.396 1318.41 959.498 1311.14 C 942.799 1299.01 918.381 1277.82 922.066 1318.19 C 924.238 1341.98 930.081 1363.67 935.818 1386.64 C 927.596 1381.39 917.203 1376.02 909.302 1371.01 C 879.898 1352.34 868.922 1356.37 876.972 1392.83 C 882.489 1417.81 887.631 1437.74 897.767 1462.57 C 880.856 1458.78 870.189 1453.71 854.042 1446.9 C 843.772 1442.56 813.824 1425.57 813.938 1448.79 C 814.695 1463.97 820.257 1485.99 824.196 1500.92 C 808.784 1493.23 793.978 1484.39 779.905 1474.46 C 770.577 1467.99 761.466 1460.95 751.702 1455.2 C 746.166 1451.93 738.919 1455.78 736.317 1461.09 C 734.302 1465.19 737.416 1470.99 736.643 1475.42 C 735.445 1482.99 733.589 1490.88 732.592 1498.44 C 729.986 1518.21 727.777 1538.63 726.578 1558.53 C 717.738 1550.11 685.88 1514.42 675.979 1514.35 C 672.76 1514.33 670.341 1515.91 668.268 1518.24 C 665.007 1521.91 663.852 1527.12 662.552 1531.73 C 661.429 1541.77 659.645 1556.39 660.096 1566.21 C 659.643 1573.75 659.706 1579.97 659.841 1587.55 L 647.567 1579.9 L 637.53 1573.63 C 639.677 1564.85 641.852 1557.48 644.551 1548.83 C 646.676 1542.98 649.164 1535.4 652.53 1530.35 C 654.897 1515.29 708.998 1417.35 717.717 1402.08 C 752.853 1340.52 795.165 1276.16 852.065 1232.58 C 868.754 1219.8 888.403 1208.21 906.212 1196.64 z" fill="rgb(252,76,72)" transform="translate(0,0)"></path>
<path d="M 906.212 1196.64 C 922.406 1182.56 940.56 1170.9 958.74 1159.71 C 1037.06 1111.5 1099.48 1097.83 1182.23 1144.37 C 1140.37 1187.43 1100.14 1232.04 1061.63 1278.12 C 1056.05 1275.84 1051.18 1274.1 1046.14 1270.77 C 1051.33 1265.9 1054.97 1240.62 1056.66 1232.74 C 1059.45 1219.65 1060.35 1202.58 1046.49 1195.18 C 1015.41 1178.58 977.1 1179.66 943.479 1186.48 C 931.249 1188.97 919.404 1193.92 907.227 1196.44 L 906.212 1196.64 z" fill="rgb(168,10,24)" transform="translate(0,0)"></path>
<path d="M 644.551 1548.83 C 651.835 1553.25 652.058 1554.24 650.445 1562.68 C 653.51 1565.93 654.505 1568.06 658.332 1569.16 C 659.268 1567.8 659.428 1567.7 660.096 1566.21 C 659.643 1573.75 659.706 1579.97 659.841 1587.55 L 647.567 1579.9 L 637.53 1573.63 C 639.677 1564.85 641.852 1557.48 644.551 1548.83 z" fill="rgb(214,21,30)" transform="translate(0,0)"></path>
<path d="M 650.445 1562.68 C 653.51 1565.93 654.505 1568.06 658.332 1569.16 C 659.268 1567.8 659.428 1567.7 660.096 1566.21 C 659.643 1573.75 659.706 1579.97 659.841 1587.55 L 647.567 1579.9 C 647.786 1574.31 647.599 1567.45 650.445 1562.68 z" fill="rgb(168,10,24)" transform="translate(0,0)"></path>
<path d="M 1741.8 1465.95 C 1762.4 1508.85 1763.03 1525.03 1804.91 1554.7 C 1794.53 1575.73 1781.79 1596.44 1769.5 1616.36 C 1728.53 1682.82 1681.47 1751.47 1628.71 1809.12 C 1606.66 1833.21 1549.16 1887.57 1522.12 1902.18 C 1514.99 1906.52 1511.64 1908.1 1503.76 1911.16 C 1474.84 1910.73 1417.29 1887.81 1391.57 1873.43 C 1377.82 1865.74 1359.42 1854.19 1345.15 1846.01 C 1373.5 1849.42 1391.94 1844.67 1417.16 1833.19 C 1439.47 1822.2 1455.46 1811.01 1475.77 1797.09 C 1479.97 1792.34 1498.8 1780.82 1504.98 1775.83 C 1607.34 1693.07 1681.04 1581.3 1741.8 1465.95 z" fill="rgb(125,34,67)" transform="translate(0,0)"></path>
<path d="M 1475.77 1797.09 C 1477.62 1804.8 1479.34 1812.53 1481.2 1820.23 C 1485.93 1839.8 1493.17 1858.68 1497.65 1878.3 L 1498.59 1882.91 L 1503.76 1911.16 C 1474.84 1910.73 1417.29 1887.81 1391.57 1873.43 C 1377.82 1865.74 1359.42 1854.19 1345.15 1846.01 C 1373.5 1849.42 1391.94 1844.67 1417.16 1833.19 C 1439.47 1822.2 1455.46 1811.01 1475.77 1797.09 z" fill="rgb(103,93,71)" transform="translate(0,0)"></path>
<path d="M 1475.77 1797.09 C 1477.62 1804.8 1479.34 1812.53 1481.2 1820.23 C 1485.93 1839.8 1493.17 1858.68 1497.65 1878.3 C 1496.84 1879.36 1497.41 1878.84 1495.69 1879.55 C 1468.64 1865.33 1443.56 1848.41 1417.16 1833.19 C 1439.47 1822.2 1455.46 1811.01 1475.77 1797.09 z" fill="rgb(144,129,100)" transform="translate(0,0)"></path>
<path d="M 1498.59 1882.91 C 1508.9 1888.02 1515.31 1892.73 1522.12 1902.18 C 1514.99 1906.52 1511.64 1908.1 1503.76 1911.16 L 1498.59 1882.91 z" fill="rgb(79,63,57)" transform="translate(0,0)"></path>
<path d="M 1008.05 1619.31 C 1012.5 1614.09 1030.64 1592.66 1035.42 1590.5 C 1053.25 1582.46 1080.85 1576.46 1100 1572 C 1160.7 1557.88 1222.14 1547.86 1282.95 1533.99 C 1315.53 1526.56 1344.71 1521.98 1376.1 1509.65 C 1386.46 1517.77 1402.93 1532.45 1409.53 1544.02 L 1410.2 1544.2 C 1430.88 1579.79 1433.6 1611.78 1443.09 1651.11 C 1414.08 1674.67 1328.44 1711.81 1290.68 1715.54 C 1285.21 1716.62 1279.68 1717.41 1274.12 1717.89 C 1190.6 1725.51 1180.35 1642.89 1111.71 1619.47 C 1092.6 1612.94 1030.52 1617.16 1008.05 1619.31 z" fill="rgb(103,93,71)" transform="translate(0,0)"></path>
<path d="M 1409.53 1544.02 L 1410.2 1544.2 C 1430.88 1579.79 1433.6 1611.78 1443.09 1651.11 C 1414.08 1674.67 1328.44 1711.81 1290.68 1715.54 C 1282.08 1709.01 1268.96 1685.91 1264.92 1675.69 C 1231.09 1590.09 1299.94 1578.57 1358.41 1561.75 C 1375.75 1556.73 1392.81 1550.81 1409.53 1544.02 z" fill="rgb(144,129,100)" transform="translate(0,0)"></path>
<path d="M 1144.42 869.517 C 1178.86 864.275 1232.16 864.615 1265.53 873.176 C 1308.84 884.285 1351.26 894.415 1394.99 904.054 C 1449.82 916.141 1498.41 922.055 1554.25 925.681 C 1513.15 940.77 1472.23 956.346 1430.98 971.043 C 1419.36 975.183 1406.22 982.846 1393.86 987.239 C 1321.25 1021.32 1268.17 1059.11 1210.19 1113.39 C 1204.38 1046.47 1196.61 989.528 1169 926.799 C 1163.3 914.079 1156.83 901.715 1149.63 889.777 C 1146.86 885.092 1136.79 873.988 1139.26 870.159 L 1144.42 869.517 z" fill="rgb(214,21,30)" transform="translate(0,0)"></path>
<path d="M 1144.42 869.517 C 1178.86 864.275 1232.16 864.615 1265.53 873.176 C 1308.84 884.285 1351.26 894.415 1394.99 904.054 C 1449.82 916.141 1498.41 922.055 1554.25 925.681 C 1513.15 940.77 1472.23 956.346 1430.98 971.043 C 1419.36 975.183 1406.22 982.846 1393.86 987.239 C 1385.98 978.091 1372.39 971.104 1363.33 963.452 C 1315.38 922.944 1262.51 897.051 1201.51 882.682 C 1190.46 880.078 1152.04 874.154 1144.42 869.517 z" fill="rgb(168,10,24)" transform="translate(0,0)"></path>
<path d="M 1722.53 1388.63 C 1728.54 1407.4 1728.55 1443.25 1738.34 1457.29 C 1673.03 1570.04 1581.26 1710.96 1475.64 1788.41 C 1464.84 1749.72 1452.75 1699.52 1444.96 1660.27 C 1448.39 1657.46 1454.61 1653.96 1458.51 1651.57 C 1549.8 1595.43 1627.1 1518.19 1691.31 1432.88 C 1702.15 1418.48 1711.64 1402.82 1722.53 1388.63 z" fill="rgb(125,34,67)" transform="translate(0,0)"></path>
<path d="M 180.62 804.422 C 239.1 801.744 308.615 836.738 360.871 860.522 C 385.443 871.484 410.174 882.09 435.053 892.336 C 455.802 900.726 476.496 906.8 496.858 914.09 C 616.408 956.896 711.452 939.533 831.814 910.853 C 936.104 886.003 1139 804.584 1240.17 854.81 C 1210.54 850.616 1156.72 852.031 1126.77 857.526 C 1084.69 861.806 1036.3 874.708 995.662 885.795 C 954.226 897.305 912.89 909.172 871.657 921.392 C 784.037 947.312 691.171 974.827 598.84 968.21 C 558.701 965.354 518.864 954.951 480.473 943.489 C 396.562 918.437 321.867 871.049 240.347 840.681 C 210.983 829.742 168.131 820.874 138.172 833.385 C 125.282 838.768 121.86 851.094 118.047 863.323 C 113.901 856.58 109.888 849.755 106.011 842.854 L 106.841 841.845 C 127.354 817.266 149.243 806.954 180.62 804.422 z" fill="rgb(196,57,90)" transform="translate(0,0)"></path>
<path d="M 1377.78 1010.22 C 1377.04 1013.55 1359.29 1024.23 1355.62 1026.74 C 1321.57 1050.02 1289.74 1077.13 1260.05 1105.72 C 1154.32 1207.53 1071.09 1329.13 972.59 1437.51 C 875.606 1544.21 765.489 1635.23 628.513 1685.77 C 555.303 1712.78 453.227 1740.38 383.723 1690.06 C 374.113 1682.9 372.236 1669.26 371.901 1657.95 C 372.367 1647.11 374.685 1641.77 378.41 1631.68 C 380.669 1637.42 383.227 1643.04 386.072 1648.51 C 402.486 1679.43 436.616 1691.02 469.528 1692.95 C 556.408 1698.05 644.926 1663.87 719.064 1622.35 C 784.957 1584.76 845.574 1538.59 899.327 1485.06 C 923.401 1461.27 943.976 1434.49 966.977 1410.03 C 1096.29 1272.5 1207.35 1100.37 1377.78 1010.22 z" fill="rgb(196,57,90)" transform="translate(0,0)"></path>
<path d="M 1444.96 1660.27 C 1452.75 1699.52 1464.84 1749.72 1475.64 1788.41 C 1459.81 1800.26 1426.85 1818.58 1408.69 1825.8 C 1386.04 1832.24 1347.39 1842.66 1326.75 1829.06 C 1286.74 1802.68 1255.26 1754.87 1224.59 1719.07 C 1250.86 1731.21 1271.63 1733.43 1300.52 1728.97 C 1366.61 1714.88 1390.79 1690.43 1444.96 1660.27 z" fill="rgb(144,129,100)" transform="translate(0,0)"></path>
<path d="M 1224.59 1719.07 C 1250.86 1731.21 1271.63 1733.43 1300.52 1728.97 C 1326.49 1761.54 1375.35 1800.24 1408.69 1825.8 C 1386.04 1832.24 1347.39 1842.66 1326.75 1829.06 C 1286.74 1802.68 1255.26 1754.87 1224.59 1719.07 z" fill="rgb(103,93,71)" transform="translate(0,0)"></path>
<path d="M 912.151 157.858 C 929.059 142.618 945.826 128.729 970.241 129.829 C 1008.56 131.556 1051.64 168.141 1076.18 196.211 C 1077.67 197.896 1079.11 199.631 1080.48 201.412 C 1071.81 201.805 1060.62 202.002 1052.21 203.183 C 1043.08 204.805 1029.12 206.264 1019.04 207.9 C 940.456 220.657 885.146 240.784 814.964 277.413 C 838.702 244.029 859.63 212.549 888.07 182.769 C 895.454 175.037 903.799 164.312 912.151 157.858 z" fill="rgb(94,28,54)" transform="translate(0,0)"></path>
<path d="M 912.151 157.858 C 929.059 142.618 945.826 128.729 970.241 129.829 C 1008.56 131.556 1051.64 168.141 1076.18 196.211 C 1077.67 197.896 1079.11 199.631 1080.48 201.412 C 1071.81 201.805 1060.62 202.002 1052.21 203.183 C 1025.07 162.561 988.829 142.439 939.009 150.715 C 930.683 152.098 920.134 157.539 912.151 157.858 z" fill="rgb(193,90,121)" transform="translate(0,0)"></path>
<path d="M 434.15 1546.66 C 453.939 1584.02 485.981 1626.78 516.764 1655.89 C 519.174 1658.25 519.114 1658.52 520.536 1661.47 L 527.041 1675.65 C 513.094 1677.23 471.515 1683.18 457.408 1675.9 C 456.43 1675.39 453.004 1668.13 452.245 1666.54 C 447.164 1654.29 444.21 1645.96 441.229 1633.08 C 435.073 1604.71 432.693 1575.65 434.15 1546.66 z" fill="rgb(230,197,173)" transform="translate(0,0)"></path>
<path d="M 441.229 1633.08 C 460.178 1649.22 475.929 1658.9 502.559 1658.09 C 505.519 1658 514.434 1657.18 516.764 1655.89 C 519.174 1658.25 519.114 1658.52 520.536 1661.47 L 527.041 1675.65 C 513.094 1677.23 471.515 1683.18 457.408 1675.9 C 456.43 1675.39 453.004 1668.13 452.245 1666.54 C 447.164 1654.29 444.21 1645.96 441.229 1633.08 z" fill="rgb(179,136,111)" transform="translate(0,0)"></path>
<path d="M 520.536 1661.47 L 527.041 1675.65 C 513.094 1677.23 471.515 1683.18 457.408 1675.9 C 456.43 1675.39 453.004 1668.13 452.245 1666.54 C 468.961 1664.97 505.532 1672.42 520.536 1661.47 z" fill="rgb(162,119,93)" transform="translate(0,0)"></path>
<path d="M 267.19 866.952 C 287.793 875.9 308.465 884.899 328.495 895.075 C 321.556 901.262 313.277 911.645 306.517 918.969 C 282.099 943.327 270.264 965.527 252.913 994.503 C 249.236 982.344 247.319 974.034 246.822 961.309 C 241.3 932.777 252.633 891.609 267.19 866.952 z" fill="rgb(230,197,173)" transform="translate(0,0)"></path>
<path d="M 267.19 866.952 C 287.793 875.9 308.465 884.899 328.495 895.075 C 321.556 901.262 313.277 911.645 306.517 918.969 C 250.419 875.082 254.489 914.413 246.822 961.309 C 241.3 932.777 252.633 891.609 267.19 866.952 z" fill="rgb(179,136,111)" transform="translate(0,0)"></path>
<path d="M 191.152 841.699 C 218.843 847.539 237.608 853.937 263.724 865.091 C 260.214 868.554 250.285 878.781 246.856 881.276 C 220.373 904.395 204.539 920.308 186.414 951.816 C 172.079 918.128 175.111 893.24 184.69 858.709 C 186.802 853.104 188.917 847.231 191.152 841.699 z" fill="rgb(230,197,173)" transform="translate(0,0)"></path>
<path d="M 191.152 841.699 C 218.843 847.539 237.608 853.937 263.724 865.091 C 260.214 868.554 250.285 878.781 246.856 881.276 C 242.654 875.323 194.451 861.696 184.69 858.709 C 186.802 853.104 188.917 847.231 191.152 841.699 z" fill="rgb(179,136,111)" transform="translate(0,0)"></path>
<path d="M 584.87 1565.79 L 585.255 1562.46 L 586.689 1561.66 C 591.286 1563.69 596.939 1568.1 601.473 1570.94 C 619.713 1582.39 639.074 1591.42 657.811 1601.88 C 664.368 1605.54 664.576 1609.26 665.015 1616.17 C 665.028 1619.63 666.982 1628.83 667.693 1632.66 C 648.254 1641.39 626.716 1649.9 606.225 1655.84 C 592.47 1629.48 586.652 1595.24 584.87 1565.79 z" fill="rgb(230,197,173)" transform="translate(0,0)"></path>
<path d="M 584.87 1565.79 L 585.289 1566.68 C 593.471 1584.33 604.184 1615.3 621.744 1626.66 C 648.351 1630.24 646.789 1621.33 665.015 1616.17 C 665.028 1619.63 666.982 1628.83 667.693 1632.66 C 648.254 1641.39 626.716 1649.9 606.225 1655.84 C 592.47 1629.48 586.652 1595.24 584.87 1565.79 z" fill="rgb(179,136,111)" transform="translate(0,0)"></path>
<path d="M 330.753 896.626 C 353.213 907.603 377.477 917.46 400.424 928.18 C 393.079 933.583 383.3 941.392 376.487 947.511 C 361.045 961.99 343.393 981.848 335.646 1001.57 C 322.853 974.551 320.505 945.632 324.394 916.317 L 330.753 896.626 z" fill="rgb(230,197,173)" transform="translate(0,0)"></path>
<path d="M 330.753 896.626 C 353.213 907.603 377.477 917.46 400.424 928.18 C 393.079 933.583 383.3 941.392 376.487 947.511 C 364.652 928.936 347.703 914.17 324.394 916.317 L 330.753 896.626 z" fill="rgb(179,136,111)" transform="translate(0,0)"></path>
<path d="M 554.726 977.424 C 578.75 980.985 598.713 982.973 622.987 984.877 C 621.19 992.92 619.619 999.6 617.261 1007.48 C 615.561 1012.2 612.592 1024.71 611.185 1030.34 C 607.344 1045.72 603.785 1058.04 598.274 1072.89 C 574.829 1050.29 564.695 1026.76 557.606 995.768 C 556.495 989.678 555.535 983.562 554.726 977.424 z" fill="rgb(230,197,173)" transform="translate(0,0)"></path>
<path d="M 554.726 977.424 C 578.75 980.985 598.713 982.973 622.987 984.877 C 621.19 992.92 619.619 999.6 617.261 1007.48 C 605.888 996.029 572.729 993.995 557.606 995.768 C 556.495 989.678 555.535 983.562 554.726 977.424 z" fill="rgb(179,136,111)" transform="translate(0,0)"></path>
<path d="M 485.272 960.158 C 510.54 968.292 523.626 970.807 549.126 976.442 C 544.773 985.396 540.974 993.453 535.769 1001.99 C 525.581 1021.44 514.181 1039.54 504.29 1059.28 C 494.767 1040.85 486.535 1017.15 484.905 996.508 C 482.683 986 484.417 971.049 485.272 960.158 z" fill="rgb(230,197,173)" transform="translate(0,0)"></path>
<path d="M 485.272 960.158 C 510.54 968.292 523.626 970.807 549.126 976.442 C 544.773 985.396 540.974 993.453 535.769 1001.99 C 527.641 990.725 495.584 980.932 485.301 989.615 L 484.905 996.508 C 482.683 986 484.417 971.049 485.272 960.158 z" fill="rgb(179,136,111)" transform="translate(0,0)"></path>
<path d="M 525.701 1588.76 L 526.939 1586.54 C 529.731 1586.52 530.341 1587.74 532.88 1590.23 C 542.735 1599.94 553.124 1609.1 563.999 1617.66 C 569.383 1621.83 580.442 1628.06 582.833 1633.9 C 583.288 1636.39 591.255 1656.35 592.924 1661.05 C 573.61 1667.28 559.472 1669.91 539.673 1673.57 C 527.027 1648.35 522.413 1616.7 525.701 1588.76 z" fill="rgb(230,197,173)" transform="translate(0,0)"></path>
<path d="M 525.701 1588.76 C 526.35 1602.1 531.617 1617 535.946 1628.95 C 542.226 1646.3 552.286 1658.77 570.719 1646.56 C 577.443 1642.11 579.327 1641.21 582.833 1633.9 C 583.288 1636.39 591.255 1656.35 592.924 1661.05 C 573.61 1667.28 559.472 1669.91 539.673 1673.57 C 527.027 1648.35 522.413 1616.7 525.701 1588.76 z" fill="rgb(179,136,111)" transform="translate(0,0)"></path>
<path d="M 409.713 932.947 C 427.415 939.441 457.338 949.088 473.183 956.962 C 465.451 965.828 460.145 972.587 453.363 982.196 C 448.971 988.418 441.456 999.965 436.424 1005.03 L 419.312 1030.55 C 406.482 998.028 406.877 981.182 406.952 947.138 L 409.713 932.947 z" fill="rgb(230,197,173)" transform="translate(0,0)"></path>
<path d="M 409.713 932.947 C 427.415 939.441 457.338 949.088 473.183 956.962 C 465.451 965.828 460.145 972.587 453.363 982.196 C 448.971 988.418 441.456 999.965 436.424 1005.03 C 436.664 989.669 477.835 962.49 432.71 951.765 C 425.046 949.943 417.056 946.833 409.039 945.34 L 406.952 947.138 L 409.713 932.947 z" fill="rgb(179,136,111)" transform="translate(0,0)"></path>
<path d="M 677.613 1526.84 C 687.453 1539.22 694.215 1547.75 705.544 1558.91 C 716.731 1569.93 730.251 1580.66 741.046 1591.62 C 738.062 1593.62 731.84 1598.06 728.922 1599.53 C 713.906 1610.86 698.825 1618.06 681.692 1625.45 C 673.124 1604.46 671.958 1559.99 675.867 1537.95 C 676.382 1534.24 676.964 1530.53 677.613 1526.84 z" fill="rgb(230,197,173)" transform="translate(0,0)"></path>
<path d="M 675.867 1537.95 C 679.6 1544 683.414 1563.59 684.779 1570.97 C 691.978 1609.91 697.942 1598.38 728.922 1599.53 C 713.906 1610.86 698.825 1618.06 681.692 1625.45 C 673.124 1604.46 671.958 1559.99 675.867 1537.95 z" fill="rgb(179,136,111)" transform="translate(0,0)"></path>
<path d="M 391.532 1541.2 C 400.307 1560.69 406.907 1577.13 421.478 1593.2 C 424.226 1607.27 425.106 1621.21 428.068 1635.27 C 430.42 1645.05 432.868 1655.74 436.471 1665.09 C 437.943 1668.07 438.58 1668 438.049 1670.57 L 435.926 1670.78 C 427.036 1667.59 416.226 1659.46 409.97 1652.34 C 390.728 1635.23 382.208 1593.3 385.885 1568.82 C 386.56 1557.48 388.005 1551.98 391.532 1541.2 z" fill="rgb(230,197,173)" transform="translate(0,0)"></path>
<path d="M 385.885 1568.82 C 386.009 1589.84 395.838 1614.86 410.174 1631.04 C 416.069 1637.7 419.982 1637.34 428.068 1635.27 C 430.42 1645.05 432.868 1655.74 436.471 1665.09 C 437.943 1668.07 438.58 1668 438.049 1670.57 L 435.926 1670.78 C 427.036 1667.59 416.226 1659.46 409.97 1652.34 C 390.728 1635.23 382.208 1593.3 385.885 1568.82 z" fill="rgb(179,136,111)" transform="translate(0,0)"></path>
<path d="M 409.97 1652.34 C 418.634 1652.31 431.821 1666.32 436.471 1665.09 C 437.943 1668.07 438.58 1668 438.049 1670.57 L 435.926 1670.78 C 427.036 1667.59 416.226 1659.46 409.97 1652.34 z" fill="rgb(132,90,70)" transform="translate(0,0)"></path>
<path d="M 137.544 849.24 C 155.199 840.199 163.438 839.749 183.238 840.489 C 179.255 848.571 175.726 855.676 172.351 864.069 C 169.196 873.176 168.675 889.662 164.943 896.71 C 155.811 913.955 144.508 928.06 135.969 946.238 C 125.107 911.883 126.619 892.993 134.866 858.809 C 135.705 855.668 136.528 852.302 137.544 849.24 z" fill="rgb(230,197,173)" transform="translate(0,0)"></path>
<path d="M 137.544 849.24 C 155.199 840.199 163.438 839.749 183.238 840.489 C 179.255 848.571 175.726 855.676 172.351 864.069 C 160.249 860.977 147.327 859.423 134.866 858.809 C 135.705 855.668 136.528 852.302 137.544 849.24 z" fill="rgb(179,136,111)" transform="translate(0,0)"></path>
<path d="M 634.157 984.086 C 654.283 983.54 674.384 982.276 694.421 980.296 L 691.372 1001.04 C 688.086 1018.38 681.512 1046.84 679.4 1063.13 C 660.271 1041.36 650.426 1028.5 639.278 1000.97 C 636.957 994.549 635.767 990.71 634.157 984.086 z" fill="rgb(230,197,173)" transform="translate(0,0)"></path>
<path d="M 634.157 984.086 C 654.283 983.54 674.384 982.276 694.421 980.296 L 691.372 1001.04 C 678.27 995.919 651.774 996.415 639.278 1000.97 C 636.957 994.549 635.767 990.71 634.157 984.086 z" fill="rgb(179,136,111)" transform="translate(0,0)"></path>
<path d="M 748.643 1468.76 C 768.071 1484.92 804.883 1508.77 828.18 1518.53 L 838.853 1522.94 C 825.441 1533.41 811.769 1543.55 797.85 1553.34 L 790.229 1544.2 C 776.428 1527.33 767.425 1514.87 759.615 1494.64 C 755.665 1486.86 750.7 1477.26 748.643 1468.76 z" fill="rgb(230,197,173)" transform="translate(0,0)"></path>
<path d="M 828.18 1518.53 L 838.853 1522.94 C 825.441 1533.41 811.769 1543.55 797.85 1553.34 L 790.229 1544.2 C 798.952 1539.54 804.026 1537.41 810.369 1529.64 C 816.39 1526.3 823.429 1523.25 828.18 1518.53 z" fill="rgb(162,119,93)" transform="translate(0,0)"></path>
<path d="M 759.615 1494.64 C 763.407 1495.91 764.657 1498.03 767.202 1501.27 C 783.639 1522.17 780.919 1531.3 810.369 1529.64 C 804.026 1537.41 798.952 1539.54 790.229 1544.2 C 776.428 1527.33 767.425 1514.87 759.615 1494.64 z" fill="rgb(179,136,111)" transform="translate(0,0)"></path>
<path d="M 935.491 1308.6 C 938.135 1310.29 938.886 1311.07 941.18 1313.15 C 957.852 1327.12 968.663 1334.55 986.804 1346.55 L 997.815 1352.22 C 984.487 1365.87 969.714 1383.7 957.284 1398.46 C 940.79 1372.44 937.855 1338.77 935.491 1308.6 z" fill="url(#Gradient1)" transform="translate(0,0)"></path>
<path d="M 941.18 1313.15 C 957.852 1327.12 968.663 1334.55 986.804 1346.55 C 982.397 1354.07 969.397 1371.51 959.651 1369.09 C 951.695 1361.62 937.289 1321.21 941.18 1313.15 z" fill="rgb(230,197,173)" transform="translate(0,0)"></path>
<path d="M 457.972 1476.44 C 471.552 1499.92 480.525 1513.58 499.649 1533.35 C 492.782 1540.13 486.002 1547 479.309 1553.95 C 473.74 1559.79 468.203 1565.94 462.721 1571.89 C 447.731 1545.99 444.121 1525.65 450.761 1495.56 C 453.173 1487.99 454.592 1483.54 457.972 1476.44 z" fill="rgb(230,197,173)" transform="translate(0,0)"></path>
<path d="M 462.721 1571.89 C 447.731 1545.99 444.121 1525.65 450.761 1495.56 C 458.669 1511.28 458.854 1541.27 479.309 1553.95 C 473.74 1559.79 468.203 1565.94 462.721 1571.89 z" fill="rgb(179,136,111)" transform="translate(0,0)"></path>
<path d="M 770.703 964.168 C 769.629 972.237 768.313 981.077 765.648 988.737 C 761.14 1003.07 753.487 1024.94 745.761 1037.59 C 734.234 1027.51 722.651 1011.66 716.405 997.651 C 713.338 991.014 711.077 984.687 708.55 977.837 C 729.343 973.629 750.063 969.072 770.703 964.168 z" fill="rgb(230,197,173)" transform="translate(0,0)"></path>
<path d="M 770.703 964.168 C 769.629 972.237 768.313 981.077 765.648 988.737 C 760.092 983.594 723.529 994.33 716.405 997.651 C 713.338 991.014 711.077 984.687 708.55 977.837 C 729.343 973.629 750.063 969.072 770.703 964.168 z" fill="rgb(144,129,100)" transform="translate(0,0)"></path>
<path d="M 531.965 1405.73 C 532.118 1402.44 531.698 1400.59 533.246 1398.07 C 536.11 1399.3 540.028 1404.08 542.476 1406.63 C 551.916 1416.45 567.474 1432.71 581.447 1434.88 C 584.313 1435.34 586.98 1435.61 589.682 1436.66 L 567 1464.95 C 563.132 1469.96 558.887 1475.04 554.877 1479.97 C 542.927 1470.13 537.828 1465.39 534.88 1449.28 C 532.146 1434.34 530.935 1420.93 531.965 1405.73 z" fill="rgb(230,197,173)" transform="translate(0,0)"></path>
<path d="M 531.965 1405.73 C 537.698 1421.44 554.188 1454.72 567 1464.95 C 563.132 1469.96 558.887 1475.04 554.877 1479.97 C 542.927 1470.13 537.828 1465.39 534.88 1449.28 C 532.146 1434.34 530.935 1420.93 531.965 1405.73 z" fill="rgb(179,136,111)" transform="translate(0,0)"></path>
<path d="M 888.572 1377.87 L 887.654 1374.47 L 889.104 1373.99 C 905.17 1382.29 923.275 1394.68 939.832 1403.88 L 949.932 1408.32 C 936.378 1423.8 924.819 1437.08 910.539 1452.2 C 898.553 1435.38 891.293 1398.74 888.572 1377.87 z" fill="rgb(230,197,173)" transform="translate(0,0)"></path>
<path d="M 888.572 1377.87 C 892.095 1381.92 892.452 1384.6 894.469 1389.59 C 901.652 1407.33 902.469 1415.6 919.431 1426.09 C 929.257 1419.65 933.826 1413.99 939.832 1403.88 L 949.932 1408.32 C 936.378 1423.8 924.819 1437.08 910.539 1452.2 C 898.553 1435.38 891.293 1398.74 888.572 1377.87 z" fill="rgb(179,136,111)" transform="translate(0,0)"></path>
<path d="M 789.555 959.789 C 809.412 954.139 827.208 949.396 847.053 943.09 C 846.986 947.785 846.617 952.262 846.278 956.937 C 845.017 973.583 844.975 993.593 843.049 1009.31 C 824.807 1000.05 809.275 988.345 796.166 972.598 C 792.724 967.999 791.766 965.033 789.555 959.789 z" fill="rgb(230,197,173)" transform="translate(0,0)"></path>
<path d="M 789.555 959.789 C 809.412 954.139 827.208 949.396 847.053 943.09 C 846.986 947.785 846.617 952.262 846.278 956.937 C 833.675 958.381 823.923 963.999 811.895 967.924 C 806.778 969.593 800.911 970.92 796.166 972.598 C 792.724 967.999 791.766 965.033 789.555 959.789 z" fill="rgb(162,119,93)" transform="translate(0,0)"></path>
<path d="M 503.515 1440.78 C 517.634 1465.39 524.976 1472.3 543.676 1492.83 C 538.389 1499.13 536.634 1500.74 530.305 1505.98 C 526.481 1509.31 522.837 1512.57 518.789 1515.63 C 517.036 1517.4 513.096 1520.33 511.019 1521.98 C 505.1 1517.29 500.266 1512.89 494.687 1507.8 C 494.367 1503.23 494.5 1497.53 494.48 1492.87 C 493.535 1478.75 495.289 1468.87 498.638 1455.3 C 500.217 1450.44 501.843 1445.6 503.515 1440.78 z" fill="rgb(179,136,111)" transform="translate(0,0)"></path>
<path d="M 503.515 1440.78 C 517.634 1465.39 524.976 1472.3 543.676 1492.83 C 538.389 1499.13 536.634 1500.74 530.305 1505.98 C 517.076 1500.53 512.03 1479.59 506.572 1468.04 C 504.824 1464.34 501 1458.82 498.638 1455.3 C 500.217 1450.44 501.843 1445.6 503.515 1440.78 z" fill="rgb(230,197,173)" transform="translate(0,0)"></path>
<path d="M 494.48 1492.87 C 502.775 1502.08 508.202 1508.86 518.789 1515.63 C 517.036 1517.4 513.096 1520.33 511.019 1521.98 C 505.1 1517.29 500.266 1512.89 494.687 1507.8 C 494.367 1503.23 494.5 1497.53 494.48 1492.87 z" fill="rgb(162,119,93)" transform="translate(0,0)"></path>
<path d="M 743.852 1515.47 C 744.465 1507.51 745.323 1499.58 746.426 1491.68 C 758.383 1516.9 766.941 1532.98 781.751 1556.9 C 783.646 1559.07 783.717 1558.93 784.636 1561.61 C 782.155 1566.31 759.763 1581.64 754.247 1585.64 L 740.772 1572.54 C 740.321 1551.52 740.484 1536.55 743.852 1515.47 z" fill="rgb(230,197,173)" transform="translate(0,0)"></path>
<path d="M 740.772 1572.54 C 740.321 1551.52 740.484 1536.55 743.852 1515.47 C 744.094 1526.91 749.576 1550.14 758.182 1557.85 C 761.373 1560.76 765.634 1562.21 769.939 1561.85 C 773.677 1561.51 778.638 1558.94 781.751 1556.9 C 783.646 1559.07 783.717 1558.93 784.636 1561.61 C 782.155 1566.31 759.763 1581.64 754.247 1585.64 L 740.772 1572.54 z" fill="rgb(179,136,111)" transform="translate(0,0)"></path>
<path d="M 641.826 1317.57 C 642.928 1313.27 642.264 1312.97 644.931 1310.35 C 649.279 1312 682.307 1327.77 687.387 1330.52 C 677.967 1344.54 670.534 1352.76 658.751 1364.86 C 652.661 1371.4 641.816 1382.62 634.748 1388.31 C 633.798 1387.89 630.721 1387.07 629.556 1386.73 C 632.098 1386.42 632.211 1386.37 634.62 1385.48 C 636.329 1382.34 635.971 1373.59 636.001 1369.8 C 636.143 1352.19 637.458 1334.7 641.826 1317.57 z" fill="rgb(230,197,173)" transform="translate(0,0)"></path>
<path d="M 629.556 1386.73 C 632.098 1386.42 632.211 1386.37 634.62 1385.48 C 636.329 1382.34 635.971 1373.59 636.001 1369.8 C 636.143 1352.19 637.458 1334.7 641.826 1317.57 C 647.003 1330.66 651.808 1355.29 658.751 1364.86 C 652.661 1371.4 641.816 1382.62 634.748 1388.31 C 633.798 1387.89 630.721 1387.07 629.556 1386.73 z" fill="rgb(179,136,111)" transform="translate(0,0)"></path>
<path d="M 827.593 1456.94 L 827.069 1453.53 C 832.677 1449.98 870.077 1468.99 878.246 1472.1 L 887.909 1476.14 C 875.374 1489.21 862.446 1501.89 849.144 1514.17 C 847.199 1512.69 842.354 1508.71 841.285 1506.94 C 834.423 1495.59 829.402 1469.92 827.593 1456.94 z" fill="rgb(144,129,100)" transform="translate(0,0)"></path>
<path d="M 827.593 1456.94 L 827.069 1453.53 C 832.677 1449.98 870.077 1468.99 878.246 1472.1 C 870.892 1480.48 864.511 1484.5 854.547 1488.8 C 839.471 1479.44 837.253 1469.98 828.117 1457.63 L 827.593 1456.94 z" fill="rgb(230,197,173)" transform="translate(0,0)"></path>
<path d="M 581.447 1434.88 C 594.533 1423.52 580.541 1383.31 589.743 1366.85 C 590.632 1365.26 590.842 1365.61 592.465 1365.2 C 605.712 1372.63 615.373 1381.71 629.556 1386.73 C 630.721 1387.07 633.798 1387.89 634.748 1388.31 C 627.05 1395.74 619.537 1402.84 612.322 1410.76 C 605.717 1418.2 595.363 1429.16 589.682 1436.66 C 586.98 1435.61 584.313 1435.34 581.447 1434.88 z" fill="rgb(162,119,93)" transform="translate(0,0)"></path>
<path d="M 592.465 1365.2 C 605.712 1372.63 615.373 1381.71 629.556 1386.73 C 630.721 1387.07 633.798 1387.89 634.748 1388.31 C 627.05 1395.74 619.537 1402.84 612.322 1410.76 C 604.244 1404.05 592.527 1375.37 592.465 1365.2 z" fill="rgb(230,197,173)" transform="translate(0,0)"></path>
<path d="M 864.369 938.765 L 919.116 921.282 C 919.565 924.847 919.791 928.828 920.08 932.443 C 920.079 948.163 919.647 960.064 917.512 975.896 C 897.835 968.181 893.138 964.234 876.869 951.103 C 873.732 948.523 867.501 941.924 864.369 938.765 z" fill="rgb(230,197,173)" transform="translate(0,0)"></path>
<path d="M 864.369 938.765 L 919.116 921.282 C 919.565 924.847 919.791 928.828 920.08 932.443 C 910.714 934.179 879.314 941.547 876.869 951.103 C 873.732 948.523 867.501 941.924 864.369 938.765 z" fill="rgb(179,136,111)" transform="translate(0,0)"></path>
<path d="M 1016.22 1270.67 C 1024.14 1273.72 1034.28 1280.57 1041.69 1285.28 C 1044.65 1287.15 1047.29 1288.82 1050.12 1290.88 C 1044.11 1298.68 1014.47 1337.62 1007.83 1340.22 C 1003.81 1336.54 1003.8 1319.99 1004.8 1314.86 C 1005.49 1300.83 1009.52 1283.15 1016.22 1270.67 z" fill="rgb(230,197,173)" transform="translate(0,0)"></path>
<path d="M 1041.69 1285.28 C 1044.65 1287.15 1047.29 1288.82 1050.12 1290.88 C 1044.11 1298.68 1014.47 1337.62 1007.83 1340.22 C 1003.81 1336.54 1003.8 1319.99 1004.8 1314.86 C 1004.9 1317.53 1005.21 1319.45 1005.59 1322.05 C 1017.04 1312.67 1033.53 1297.39 1041.69 1285.28 z" fill="rgb(162,119,93)" transform="translate(0,0)"></path>
<path d="M 696.218 1319.59 C 696.846 1310.61 700.452 1270.53 706.172 1266.38 L 707.134 1267.07 C 711.323 1270.02 715.275 1272.79 719.319 1275.96 L 712.631 1291.01 C 708.603 1300.48 701.901 1311.05 696.218 1319.59 z" fill="rgb(144,129,100)" transform="translate(0,0)"></path>
<path d="M 707.134 1267.07 C 711.323 1270.02 715.275 1272.79 719.319 1275.96 L 712.631 1291.01 C 709.955 1287.07 707.189 1272.06 707.134 1267.07 z" fill="rgb(230,197,173)" transform="translate(0,0)"></path>
<metadata><recraft-signature>{"signed_by": "recraft", "signature_b64": "d7sF2iN4oL9ODWnkjwugxdIG/kxUj7YJwpl50OSC84mnl0U+j8NLoJUf4vcqa2q4P/K62Hp+0apBmdegYZ7wBg==", "signing_algo": "Ed25519", "generation_timestamp": 1775806236, "identifier": "db5e4894-9780-4276-a2cd-3bb6e78b8b8e"}</recraft-signature></metadata></svg>